<svg id="svg" version="1.1" xmlns="http://www.w3.org/2000/svg" xmlns:xlink="http://www.w3.org/1999/xlink" width="400" height="400" viewBox="0, 0, 400,400"><g id="svgg"><path id="path0" d="M194.400 2.612 C 187.244 3.609,182.884 5.390,172.351 11.618 C 168.528 13.878,160.900 18.379,155.400 21.619 C 149.900 24.859,144.230 28.222,142.800 29.092 C 141.370 29.962,138.670 31.575,136.800 32.676 C 126.760 38.589,100.266 54.305,95.800 56.997 C 94.260 57.926,90.030 60.443,86.400 62.592 C 60.560 77.888,49.767 84.473,46.900 86.690 C 39.633 92.313,33.507 101.542,30.308 111.688 L 29.012 115.800 28.897 196.400 C 28.762 291.627,28.452 285.317,33.789 296.057 C 40.362 309.283,40.979 309.758,87.000 336.991 C 91.400 339.595,96.260 342.486,97.800 343.415 C 100.883 345.277,120.589 356.964,136.200 366.189 C 141.700 369.439,147.910 373.127,150.000 374.385 C 153.673 376.595,161.112 380.990,173.200 388.093 C 190.937 398.516,203.875 399.971,219.759 393.327 C 221.960 392.406,236.533 383.933,261.600 368.998 C 267.430 365.525,273.280 362.052,274.600 361.281 C 275.920 360.510,284.470 355.433,293.600 350.000 C 302.730 344.566,314.700 337.453,320.200 334.193 C 325.700 330.933,332.630 326.788,335.600 324.982 C 338.570 323.175,343.070 320.476,345.600 318.984 C 360.170 310.388,366.927 302.666,371.512 289.372 C 373.746 282.894,373.614 288.526,373.614 199.244 L 373.614 117.000 372.613 113.294 C 370.015 103.673,365.441 95.746,358.920 89.559 C 354.536 85.399,355.705 86.145,324.200 67.413 C 316.500 62.835,308.940 58.330,307.400 57.402 C 305.860 56.474,301.720 54.007,298.200 51.920 C 294.680 49.833,286.940 45.243,281.000 41.721 C 275.060 38.199,266.600 33.192,262.200 30.596 C 257.800 27.999,252.040 24.583,249.400 23.004 C 246.760 21.425,242.350 18.819,239.600 17.213 C 236.850 15.606,233.790 13.801,232.800 13.202 C 215.752 2.880,207.938 0.725,194.400 2.612 M205.114 10.433 C 213.247 11.340,217.018 12.986,233.000 22.606 C 234.540 23.533,240.750 27.224,246.800 30.807 C 252.850 34.391,261.940 39.791,267.000 42.806 C 272.060 45.822,282.500 52.026,290.200 56.595 C 297.900 61.163,305.640 65.760,307.400 66.810 C 309.160 67.860,313.930 70.694,318.000 73.106 C 355.226 95.177,354.536 94.665,360.085 104.309 C 363.474 110.198,366.546 120.772,363.556 116.260 C 359.353 109.913,350.735 108.364,342.612 112.493 C 340.992 113.317,339.865 114.007,320.400 126.094 C 314.570 129.714,307.100 134.347,303.800 136.390 C 300.500 138.433,295.280 141.675,292.200 143.594 C 286.797 146.962,282.199 149.821,251.000 169.203 C 243.080 174.123,233.270 180.203,229.200 182.713 C 207.397 196.159,201.932 201.518,198.726 212.600 L 197.800 215.800 197.800 295.000 L 197.800 374.200 198.764 377.143 C 200.062 381.105,202.541 384.421,205.421 386.047 C 208.690 387.891,207.984 388.194,200.486 388.160 C 190.252 388.113,189.335 387.745,168.400 375.291 C 160.810 370.776,151.810 365.427,148.400 363.404 C 144.990 361.382,135.900 355.982,128.200 351.405 C 120.500 346.827,111.410 341.427,108.000 339.405 C 89.993 328.723,73.479 318.906,71.000 317.410 C 69.460 316.480,65.500 314.132,62.200 312.191 C 47.255 303.402,40.115 294.559,37.434 281.517 C 36.473 276.841,36.468 121.573,37.429 116.920 C 40.019 104.381,46.710 95.637,59.645 87.888 C 66.336 83.879,81.628 74.791,91.400 69.015 C 95.800 66.415,100.660 63.527,102.200 62.599 C 103.740 61.670,109.950 57.980,116.000 54.397 C 122.050 50.815,128.260 47.122,129.800 46.192 C 131.340 45.261,138.450 41.031,145.600 36.793 C 152.750 32.554,161.840 27.158,165.800 24.802 C 188.655 11.203,189.421 10.878,200.516 10.053 C 200.909 10.024,202.978 10.195,205.114 10.433 M253.186 219.974 C 253.414 220.399,253.600 223.080,253.600 225.932 L 253.600 231.116 256.036 230.358 C 259.398 229.312,264.360 229.315,265.656 230.365 L 266.600 231.130 265.200 236.619 C 263.219 244.383,263.131 244.500,259.466 244.168 C 250.498 243.355,241.390 250.701,241.468 258.683 C 241.513 263.228,242.756 264.311,248.540 264.845 C 257.214 265.645,258.704 265.898,261.042 266.966 C 273.664 272.734,271.092 297.077,256.379 311.085 L 254.000 313.350 254.000 319.621 C 254.000 326.936,254.150 326.633,249.139 329.487 C 243.805 332.525,243.842 332.552,243.669 325.415 C 243.597 322.437,243.460 320.000,243.364 320.000 C 243.268 320.000,241.891 320.360,240.303 320.800 C 235.391 322.161,229.145 321.717,228.589 319.967 C 228.256 318.917,230.715 308.751,231.690 307.148 C 232.350 306.064,232.594 305.946,233.720 306.168 C 244.576 308.317,255.229 301.308,256.253 291.343 C 256.960 284.455,254.781 282.569,245.438 281.984 C 239.615 281.619,237.602 281.227,235.200 279.989 C 224.307 274.377,227.177 252.820,240.574 239.612 L 243.200 237.023 243.202 231.412 C 243.205 225.785,243.584 223.957,244.928 223.099 C 251.571 218.855,252.416 218.536,253.186 219.974 M319.000 292.687 C 319.000 296.143,318.862 297.311,318.400 297.771 C 317.242 298.924,286.741 317.200,285.975 317.200 C 285.010 317.200,284.762 307.661,285.706 306.878 C 287.536 305.359,317.547 288.014,318.200 288.097 C 318.946 288.193,319.000 288.501,319.000 292.687 " stroke="none" fill="#2c3435" fill-rule="evenodd"></path><path id="path1" d="M0.000 200.000 L 0.000 400.000 200.000 400.000 L 400.000 400.000 400.000 200.000 L 400.000 0.000 200.000 0.000 L 0.000 0.000 0.000 200.000 M211.200 2.544 C 216.150 3.817,221.595 6.135,226.951 9.249 C 233.095 12.820,253.302 24.784,261.000 29.406 C 263.640 30.991,266.430 32.608,267.200 32.998 C 267.970 33.389,269.500 34.289,270.600 34.998 C 271.700 35.708,274.490 37.384,276.800 38.722 C 279.110 40.060,281.900 41.700,283.000 42.367 C 285.549 43.913,298.136 51.412,307.200 56.784 C 311.050 59.066,315.460 61.687,317.000 62.609 C 318.540 63.530,323.400 66.404,327.800 68.995 C 332.200 71.586,336.700 74.284,337.800 74.990 C 338.900 75.696,343.130 78.237,347.200 80.637 C 362.196 89.477,370.415 100.412,373.780 116.000 C 374.779 120.628,374.502 280.943,373.489 284.600 C 370.038 297.052,363.094 307.797,354.633 313.774 C 352.432 315.329,337.845 324.278,332.400 327.415 C 331.190 328.112,328.130 329.937,325.600 331.471 C 323.070 333.005,319.830 334.928,318.400 335.744 C 316.970 336.560,314.990 337.732,314.000 338.349 C 313.010 338.965,309.050 341.330,305.200 343.604 C 301.350 345.878,296.130 348.996,293.600 350.532 C 291.070 352.069,287.830 353.982,286.400 354.784 C 284.970 355.586,283.080 356.706,282.200 357.273 C 281.320 357.841,277.450 360.155,273.600 362.417 C 269.750 364.678,263.360 368.449,259.400 370.797 C 255.440 373.144,251.570 375.430,250.800 375.877 C 250.030 376.323,247.442 377.884,245.049 379.344 C 242.655 380.805,240.634 382.000,240.558 382.000 C 240.481 382.000,238.659 383.056,236.509 384.346 C 220.175 394.151,216.213 395.919,207.600 397.241 C 199.266 398.521,186.737 396.378,180.000 392.521 C 176.993 390.799,168.901 386.064,163.400 382.807 C 160.540 381.114,154.600 377.600,150.200 374.999 C 145.800 372.398,139.500 368.660,136.200 366.692 C 132.900 364.725,128.580 362.160,126.600 360.993 C 124.620 359.826,120.210 357.216,116.800 355.194 C 113.390 353.171,108.440 350.244,105.800 348.690 C 103.160 347.136,99.920 345.203,98.600 344.395 C 97.280 343.586,94.400 341.876,92.200 340.595 C 90.000 339.313,87.120 337.599,85.800 336.785 C 83.071 335.102,71.812 328.433,70.600 327.781 C 61.403 322.836,47.514 313.791,43.819 310.341 C 35.931 302.974,29.669 291.101,28.783 281.832 C 28.059 274.263,28.286 118.530,29.026 114.880 C 30.338 108.404,34.517 99.723,39.046 94.062 C 44.689 87.009,46.051 86.046,73.200 69.921 C 87.039 61.701,88.998 60.541,93.000 58.192 C 95.200 56.900,97.270 55.628,97.600 55.364 C 97.930 55.101,99.640 54.083,101.400 53.104 C 103.160 52.124,106.670 50.070,109.200 48.540 C 111.730 47.009,116.050 44.430,118.800 42.808 C 121.550 41.187,126.410 38.306,129.600 36.407 C 134.940 33.227,139.245 30.680,148.201 25.400 C 150.066 24.300,154.879 21.437,158.896 19.038 C 162.913 16.639,167.550 13.927,169.200 13.013 C 170.850 12.098,173.455 10.573,174.989 9.625 C 186.412 2.560,200.529 -0.200,211.200 2.544 M192.400 11.580 C 186.793 12.908,185.461 13.554,172.933 21.030 C 162.896 27.019,162.282 27.384,146.400 36.797 C 140.350 40.383,132.790 44.878,129.600 46.786 C 126.410 48.694,120.200 52.386,115.800 54.990 C 111.400 57.594,106.540 60.485,105.000 61.415 C 103.460 62.344,97.250 66.034,91.200 69.615 C 85.150 73.196,77.320 77.838,73.800 79.930 C 70.280 82.022,65.780 84.686,63.800 85.849 C 48.371 94.913,42.706 101.047,39.093 112.600 C 37.084 119.026,37.141 116.289,37.274 201.000 L 37.400 280.600 38.516 284.200 C 40.609 290.954,43.777 296.620,48.165 301.461 C 51.846 305.521,53.436 306.568,77.800 320.988 C 82.200 323.592,87.330 326.628,89.200 327.734 C 91.070 328.841,95.210 331.305,98.400 333.211 C 101.590 335.116,108.700 339.336,114.200 342.587 C 119.700 345.838,125.460 349.262,127.000 350.194 C 128.540 351.126,134.750 354.816,140.800 358.394 C 146.850 361.971,153.060 365.661,154.600 366.593 C 189.153 387.514,194.129 389.590,205.297 387.744 L 206.793 387.496 205.097 386.415 C 201.375 384.044,198.639 379.691,197.539 374.394 C 196.599 369.870,196.757 218.347,197.705 214.655 C 199.608 207.242,202.748 202.012,208.620 196.476 C 212.615 192.710,215.993 190.419,234.200 179.120 C 240.580 175.160,248.140 170.469,251.000 168.694 C 253.860 166.919,258.090 164.304,260.400 162.883 C 262.710 161.461,265.950 159.444,267.600 158.400 C 269.250 157.356,272.490 155.335,274.800 153.910 C 283.787 148.363,291.232 143.752,296.600 140.407 C 299.680 138.488,306.790 134.068,312.400 130.586 C 318.010 127.103,326.615 121.750,331.523 118.690 C 348.898 107.857,354.979 106.915,362.031 113.967 C 363.334 115.270,364.400 116.243,364.400 116.130 C 364.400 111.818,357.741 100.078,352.539 95.221 C 349.140 92.046,348.448 91.614,315.000 71.807 C 310.600 69.202,305.740 66.311,304.200 65.383 C 302.660 64.455,296.450 60.766,290.400 57.185 C 284.350 53.604,276.790 49.117,273.600 47.215 C 270.410 45.312,264.200 41.617,259.800 39.004 C 255.400 36.391,249.640 32.965,247.000 31.392 C 244.360 29.819,238.600 26.402,234.200 23.799 C 229.800 21.196,224.603 18.112,222.651 16.945 C 213.310 11.362,201.880 9.335,192.400 11.580 M247.691 221.822 C 243.639 224.482,243.600 224.576,243.600 231.750 L 243.600 237.447 241.436 239.316 C 229.853 249.316,225.214 270.170,232.899 277.689 C 235.523 280.255,238.439 281.140,245.660 281.560 C 254.080 282.049,256.800 283.966,256.800 289.412 C 256.800 299.925,244.563 309.600,234.807 306.802 C 232.052 306.012,231.890 306.264,229.975 314.340 C 228.352 321.181,228.236 321.012,234.515 320.971 C 237.921 320.949,239.601 320.742,241.500 320.113 L 244.000 319.284 244.000 324.793 C 244.000 331.972,243.983 331.957,248.803 329.198 C 253.795 326.341,253.752 326.432,253.511 319.333 L 253.313 313.492 255.877 311.067 C 269.905 297.799,273.310 273.994,262.055 267.869 C 259.541 266.500,257.196 266.015,251.143 265.612 C 242.783 265.056,240.987 263.776,241.032 258.408 C 241.101 250.154,250.483 242.890,259.837 243.848 C 262.281 244.098,262.337 244.082,262.918 242.951 C 263.733 241.366,266.032 231.748,265.763 231.048 C 265.162 229.482,259.513 229.636,254.100 231.366 L 253.200 231.654 253.195 226.527 C 253.186 218.472,253.017 218.327,247.691 221.822 " stroke="none" fill="#ffffff" fill-rule="evenodd"></path><path id="path2" d="M301.806 297.226 C 293.230 302.304,285.985 306.647,285.706 306.878 C 284.762 307.661,285.010 317.200,285.975 317.200 C 286.741 317.200,317.242 298.924,318.400 297.771 C 319.437 296.739,319.261 288.233,318.200 288.097 C 317.739 288.038,310.784 291.911,301.806 297.226 " stroke="none" fill="#53a532" fill-rule="evenodd"></path><path id="path3" d="M199.516 1.897 C 200.899 1.975,203.059 1.974,204.316 1.895 C 205.572 1.816,204.440 1.752,201.800 1.753 C 199.160 1.753,198.132 1.818,199.516 1.897 M211.633 2.944 C 211.725 3.023,212.340 3.208,213.000 3.356 C 213.876 3.552,214.038 3.515,213.600 3.218 C 213.060 2.853,211.232 2.598,211.633 2.944 M199.500 10.693 C 200.435 10.777,201.965 10.777,202.900 10.693 C 203.835 10.609,203.070 10.540,201.200 10.540 C 199.330 10.540,198.565 10.609,199.500 10.693 M145.900 26.629 C 144.405 27.440,144.496 27.778,146.000 27.000 C 146.660 26.659,147.200 26.294,147.200 26.190 C 147.200 25.932,147.157 25.947,145.900 26.629 M42.989 89.700 L 40.200 92.600 43.100 89.811 C 44.695 88.277,46.000 86.972,46.000 86.911 C 46.000 86.617,45.580 87.006,42.989 89.700 M353.183 95.700 C 354.164 96.745,355.019 97.600,355.083 97.600 C 355.384 97.600,355.066 97.241,353.300 95.583 L 351.400 93.800 353.183 95.700 M369.228 103.400 C 369.228 103.620,369.486 104.250,369.800 104.800 C 370.114 105.350,370.372 105.620,370.372 105.400 C 370.372 105.180,370.114 104.550,369.800 104.000 C 369.486 103.450,369.228 103.180,369.228 103.400 M350.700 109.889 C 351.415 109.978,352.585 109.978,353.300 109.889 C 354.015 109.801,353.430 109.728,352.000 109.728 C 350.570 109.728,349.985 109.801,350.700 109.889 M374.196 198.200 C 374.196 242.420,374.243 260.569,374.300 238.532 C 374.357 216.494,374.357 180.314,374.300 158.132 C 374.243 135.949,374.196 153.980,374.196 198.200 M36.996 199.400 C 36.996 242.300,37.043 259.791,37.100 238.268 C 37.157 216.746,37.157 181.646,37.100 160.268 C 37.043 138.891,36.996 156.500,36.996 199.400 M196.996 295.200 C 196.996 336.450,197.043 353.325,197.100 332.700 C 197.157 312.075,197.157 278.325,197.100 257.700 C 197.043 237.075,196.996 253.950,196.996 295.200 M244.922 223.429 L 243.800 224.458 245.100 223.554 C 245.815 223.057,246.400 222.593,246.400 222.525 C 246.400 222.209,245.958 222.480,244.922 223.429 M261.105 229.883 C 261.602 229.979,262.322 229.975,262.705 229.875 C 263.087 229.775,262.680 229.696,261.800 229.701 C 260.920 229.705,260.607 229.787,261.105 229.883 M257.105 243.883 C 257.602 243.979,258.322 243.975,258.705 243.875 C 259.087 243.775,258.680 243.696,257.800 243.701 C 256.920 243.705,256.607 243.787,257.105 243.883 M244.975 249.300 L 243.800 250.600 245.100 249.425 C 245.815 248.779,246.400 248.194,246.400 248.125 C 246.400 247.816,246.070 248.088,244.975 249.300 M240.901 258.600 C 240.905 259.480,240.987 259.793,241.083 259.295 C 241.179 258.798,241.175 258.078,241.075 257.695 C 240.975 257.313,240.896 257.720,240.901 258.600 M228.944 266.400 C 228.944 268.490,229.012 269.345,229.094 268.300 C 229.176 267.255,229.176 265.545,229.094 264.500 C 229.012 263.455,228.944 264.310,228.944 266.400 M248.691 265.489 C 249.401 265.577,250.661 265.579,251.491 265.492 C 252.321 265.405,251.740 265.333,250.200 265.331 C 248.660 265.329,247.981 265.400,248.691 265.489 M28.514 277.800 C 28.517 278.900,28.595 279.303,28.687 278.695 C 28.779 278.086,28.777 277.186,28.682 276.695 C 28.587 276.203,28.511 276.700,28.514 277.800 M247.305 281.887 C 247.914 281.979,248.814 281.977,249.305 281.882 C 249.797 281.787,249.300 281.711,248.200 281.714 C 247.100 281.717,246.697 281.795,247.305 281.887 M245.600 305.200 C 244.830 305.622,244.344 305.974,244.520 305.983 C 244.944 306.005,247.200 304.832,247.200 304.590 C 247.200 304.328,247.177 304.337,245.600 305.200 M359.392 309.300 L 355.800 313.000 359.500 309.408 C 361.535 307.433,363.200 305.768,363.200 305.708 C 363.200 305.418,362.728 305.864,359.392 309.300 M42.600 309.200 C 44.128 310.740,45.469 312.000,45.579 312.000 C 45.689 312.000,44.528 310.740,43.000 309.200 C 41.472 307.660,40.131 306.400,40.021 306.400 C 39.911 306.400,41.072 307.660,42.600 309.200 M256.581 310.500 L 255.000 312.200 256.700 310.619 C 257.635 309.749,258.400 308.984,258.400 308.919 C 258.400 308.616,258.052 308.919,256.581 310.500 M253.293 314.800 C 253.293 315.570,253.375 315.885,253.476 315.500 C 253.576 315.115,253.576 314.485,253.476 314.100 C 253.375 313.715,253.293 314.030,253.293 314.800 M253.728 322.800 C 253.728 324.230,253.801 324.815,253.889 324.100 C 253.978 323.385,253.978 322.215,253.889 321.500 C 253.801 320.785,253.728 321.370,253.728 322.800 M233.905 321.483 C 234.402 321.579,235.122 321.575,235.505 321.475 C 235.887 321.375,235.480 321.296,234.600 321.301 C 233.720 321.305,233.407 321.387,233.905 321.483 M86.200 337.007 C 86.640 337.366,87.360 337.835,87.800 338.051 L 88.600 338.444 87.800 337.793 C 87.360 337.434,86.640 336.965,86.200 336.749 L 85.400 336.356 86.200 337.007 M288.500 353.246 C 287.137 354.119,286.695 354.706,287.900 354.043 C 288.818 353.539,290.256 352.427,290.000 352.419 C 289.890 352.416,289.215 352.788,288.500 353.246 M181.600 393.400 C 182.150 393.714,182.780 393.972,183.000 393.972 C 183.220 393.972,182.950 393.714,182.400 393.400 C 181.850 393.086,181.220 392.828,181.000 392.828 C 180.780 392.828,181.050 393.086,181.600 393.400 M198.917 397.497 C 200.411 397.574,202.751 397.574,204.117 397.496 C 205.482 397.418,204.260 397.355,201.400 397.355 C 198.540 397.356,197.422 397.420,198.917 397.497 " stroke="none" fill="#a9adb1" fill-rule="evenodd"></path><path id="path4" d="M195.500 2.282 C 195.995 2.378,196.805 2.378,197.300 2.282 C 197.795 2.187,197.390 2.109,196.400 2.109 C 195.410 2.109,195.005 2.187,195.500 2.282 M205.905 2.283 C 206.402 2.379,207.122 2.375,207.505 2.275 C 207.887 2.175,207.480 2.096,206.600 2.101 C 205.720 2.105,205.407 2.187,205.905 2.283 M183.200 5.400 C 182.650 5.714,182.380 5.972,182.600 5.972 C 182.820 5.972,183.450 5.714,184.000 5.400 C 184.550 5.086,184.820 4.828,184.600 4.828 C 184.380 4.828,183.750 5.086,183.200 5.400 M220.433 6.149 C 220.845 6.517,223.200 7.600,223.200 7.421 C 223.200 7.190,220.982 6.000,220.553 6.000 C 220.396 6.000,220.342 6.067,220.433 6.149 M200.300 10.282 C 200.795 10.378,201.605 10.378,202.100 10.282 C 202.595 10.187,202.190 10.109,201.200 10.109 C 200.210 10.109,199.805 10.187,200.300 10.282 M195.905 10.683 C 196.402 10.779,197.122 10.775,197.505 10.675 C 197.887 10.575,197.480 10.496,196.600 10.501 C 195.720 10.505,195.407 10.587,195.905 10.683 M204.900 10.676 C 205.285 10.776,205.915 10.776,206.300 10.676 C 206.685 10.575,206.370 10.493,205.600 10.493 C 204.830 10.493,204.515 10.575,204.900 10.676 M168.700 13.429 C 167.205 14.240,167.296 14.578,168.800 13.800 C 169.460 13.459,170.000 13.094,170.000 12.990 C 170.000 12.732,169.957 12.747,168.700 13.429 M233.200 13.379 C 233.200 13.489,233.740 13.859,234.400 14.200 C 235.060 14.541,235.600 14.731,235.600 14.621 C 235.600 14.511,235.060 14.141,234.400 13.800 C 233.740 13.459,233.200 13.269,233.200 13.379 M121.700 41.246 C 120.337 42.119,119.895 42.706,121.100 42.043 C 122.018 41.539,123.456 40.427,123.200 40.419 C 123.090 40.416,122.415 40.788,121.700 41.246 M359.183 89.700 C 360.164 90.745,361.019 91.600,361.083 91.600 C 361.384 91.600,361.066 91.241,359.300 89.583 L 357.400 87.800 359.183 89.700 M50.575 94.100 L 49.400 95.400 50.700 94.225 C 51.912 93.130,52.184 92.800,51.875 92.800 C 51.806 92.800,51.221 93.385,50.575 94.100 M33.380 103.240 C 32.811 104.362,32.413 105.347,32.495 105.429 C 32.577 105.511,33.127 104.593,33.718 103.389 C 34.308 102.185,34.706 101.200,34.602 101.200 C 34.498 101.200,33.948 102.118,33.380 103.240 M370.028 105.800 C 370.028 106.020,370.286 106.650,370.600 107.200 C 370.914 107.750,371.172 108.020,371.172 107.800 C 371.172 107.580,370.914 106.950,370.600 106.400 C 370.286 105.850,370.028 105.580,370.028 105.800 M38.229 113.429 C 38.081 114.015,38.038 114.572,38.132 114.666 C 38.227 114.760,38.424 114.358,38.571 113.771 C 38.719 113.185,38.762 112.628,38.668 112.534 C 38.573 112.440,38.376 112.842,38.229 113.429 M29.429 113.829 C 29.281 114.415,29.238 114.972,29.332 115.066 C 29.427 115.160,29.624 114.758,29.771 114.171 C 29.919 113.585,29.962 113.028,29.868 112.934 C 29.773 112.840,29.576 113.242,29.429 113.829 M334.100 117.246 C 332.737 118.119,332.295 118.706,333.500 118.043 C 334.418 117.539,335.856 116.427,335.600 116.419 C 335.490 116.416,334.815 116.788,334.100 117.246 M373.769 125.400 C 373.770 130.020,373.828 131.855,373.899 129.478 C 373.970 127.101,373.969 123.321,373.898 121.078 C 373.827 118.835,373.769 120.780,373.769 125.400 M28.596 197.000 C 28.596 240.560,28.643 258.321,28.700 236.468 C 28.757 214.616,28.757 178.976,28.700 157.268 C 28.643 135.561,28.596 153.440,28.596 197.000 M36.893 120.400 C 36.893 121.170,36.975 121.485,37.076 121.100 C 37.176 120.715,37.176 120.085,37.076 119.700 C 36.975 119.315,36.893 119.630,36.893 120.400 M373.769 143.200 C 373.769 147.710,373.827 149.555,373.898 147.300 C 373.970 145.045,373.970 141.355,373.898 139.100 C 373.827 136.845,373.769 138.690,373.769 143.200 M373.770 160.200 C 373.771 165.040,373.829 166.965,373.899 164.478 C 373.969 161.991,373.969 158.031,373.898 155.678 C 373.828 153.325,373.770 155.360,373.770 160.200 M269.700 157.246 C 268.337 158.119,267.895 158.706,269.100 158.043 C 270.018 157.539,271.456 156.427,271.200 156.419 C 271.090 156.416,270.415 156.788,269.700 157.246 M373.769 178.800 C 373.769 183.310,373.827 185.155,373.898 182.900 C 373.970 180.645,373.970 176.955,373.898 174.700 C 373.827 172.445,373.769 174.290,373.769 178.800 M373.770 195.800 C 373.771 200.640,373.829 202.565,373.899 200.078 C 373.969 197.591,373.969 193.631,373.898 191.278 C 373.828 188.925,373.770 190.960,373.770 195.800 M213.185 192.829 L 211.800 194.058 213.300 192.981 C 214.626 192.030,215.057 191.600,214.685 191.600 C 214.622 191.600,213.947 192.153,213.185 192.829 M207.178 197.900 L 205.800 199.400 207.300 198.022 C 208.696 196.738,208.984 196.400,208.678 196.400 C 208.612 196.400,207.937 197.075,207.178 197.900 M200.581 206.837 C 200.229 207.518,200.012 208.145,200.099 208.232 C 200.186 208.319,200.556 207.762,200.922 206.995 C 201.744 205.270,201.459 205.138,200.581 206.837 M373.769 214.400 C 373.769 218.910,373.827 220.755,373.898 218.500 C 373.970 216.245,373.970 212.555,373.898 210.300 C 373.827 208.045,373.769 209.890,373.769 214.400 M197.396 295.000 C 197.396 337.460,197.443 354.771,197.500 333.468 C 197.557 312.166,197.557 277.426,197.500 256.268 C 197.443 235.111,197.396 252.540,197.396 295.000 M253.358 225.800 C 253.358 228.880,253.421 230.087,253.497 228.482 C 253.573 226.878,253.573 224.358,253.496 222.882 C 253.419 221.407,253.357 222.720,253.358 225.800 M373.768 232.200 C 373.768 236.600,373.826 238.455,373.898 236.321 C 373.970 234.188,373.970 230.588,373.899 228.321 C 373.827 226.055,373.768 227.800,373.768 232.200 M243.288 231.178 C 243.202 236.848,243.180 236.979,242.109 238.178 L 241.018 239.400 242.321 238.181 L 243.623 236.962 243.500 231.181 L 243.376 225.400 243.288 231.178 M258.500 229.876 C 258.885 229.976,259.515 229.976,259.900 229.876 C 260.285 229.775,259.970 229.693,259.200 229.693 C 258.430 229.693,258.115 229.775,258.500 229.876 M265.462 230.400 C 265.716 230.730,266.006 231.450,266.107 232.000 L 266.291 233.000 266.346 231.949 C 266.376 231.370,266.086 230.652,265.700 230.349 C 265.091 229.871,265.060 229.878,265.462 230.400 M373.786 260.600 C 373.786 271.820,373.837 276.468,373.900 270.928 C 373.962 265.388,373.962 256.208,373.900 250.528 C 373.837 244.848,373.786 249.380,373.786 260.600 M234.953 246.100 C 233.576 248.436,233.486 248.635,234.187 247.800 C 235.000 246.832,235.700 245.600,235.438 245.600 C 235.333 245.600,235.115 245.825,234.953 246.100 M244.981 249.700 L 243.400 251.400 245.100 249.819 C 246.035 248.949,246.800 248.184,246.800 248.119 C 246.800 247.816,246.452 248.119,244.981 249.700 M228.514 266.600 C 228.517 267.700,228.595 268.103,228.687 267.495 C 228.779 266.886,228.777 265.986,228.682 265.495 C 228.587 265.003,228.511 265.500,228.514 266.600 M247.105 265.083 C 247.602 265.179,248.322 265.175,248.705 265.075 C 249.087 264.975,248.680 264.896,247.800 264.901 C 246.920 264.905,246.607 264.987,247.105 265.083 M253.300 265.476 C 253.685 265.576,254.315 265.576,254.700 265.476 C 255.085 265.375,254.770 265.293,254.000 265.293 C 253.230 265.293,252.915 265.375,253.300 265.476 M264.782 269.800 C 265.747 270.900,266.620 271.890,266.722 272.000 C 266.825 272.110,266.719 271.840,266.487 271.400 C 266.255 270.960,265.382 269.970,264.547 269.200 C 263.103 267.869,263.115 267.899,264.782 269.800 M229.429 272.800 C 229.576 273.350,229.864 274.070,230.067 274.400 C 230.325 274.817,230.357 274.695,230.171 274.000 C 230.024 273.450,229.736 272.730,229.533 272.400 C 229.275 271.983,229.243 272.105,229.429 272.800 M28.914 281.000 C 28.917 282.100,28.995 282.503,29.087 281.895 C 29.179 281.286,29.177 280.386,29.082 279.895 C 28.987 279.403,28.911 279.900,28.914 281.000 M268.940 282.400 C 268.940 284.270,269.009 285.035,269.093 284.100 C 269.177 283.165,269.177 281.635,269.093 280.700 C 269.009 279.765,268.940 280.530,268.940 282.400 M242.700 281.889 C 243.415 281.978,244.585 281.978,245.300 281.889 C 246.015 281.801,245.430 281.728,244.000 281.728 C 242.570 281.728,241.985 281.801,242.700 281.889 M29.268 284.600 C 29.262 285.040,29.411 285.760,29.600 286.200 C 30.038 287.219,30.038 286.168,29.600 284.800 C 29.343 283.996,29.277 283.957,29.268 284.600 M46.000 299.725 C 46.000 299.794,46.585 300.379,47.300 301.025 L 48.600 302.200 47.425 300.900 C 46.330 299.688,46.000 299.416,46.000 299.725 M36.800 302.000 C 37.270 302.660,37.744 303.200,37.854 303.200 C 37.964 303.200,37.670 302.660,37.200 302.000 C 36.730 301.340,36.256 300.800,36.146 300.800 C 36.036 300.800,36.330 301.340,36.800 302.000 M254.246 312.750 C 253.691 313.363,253.592 314.144,253.701 317.050 L 253.835 320.600 253.918 317.031 C 253.979 314.359,254.166 313.279,254.662 312.731 C 255.026 312.329,255.234 312.000,255.124 312.000 C 255.014 312.000,254.619 312.337,254.246 312.750 M353.281 314.172 C 351.423 315.485,351.162 315.861,352.731 314.962 C 353.463 314.543,354.250 313.975,354.480 313.700 C 355.071 312.993,354.793 313.102,353.281 314.172 M243.087 319.922 C 243.415 320.130,243.615 321.857,243.701 325.216 L 243.827 330.200 243.914 324.900 C 243.992 320.084,243.936 319.601,243.300 319.606 C 242.816 319.610,242.750 319.708,243.087 319.922 M198.512 388.295 C 199.564 388.377,201.184 388.376,202.112 388.292 C 203.040 388.208,202.180 388.141,200.200 388.142 C 198.220 388.143,197.460 388.212,198.512 388.295 " stroke="none" fill="#8c8c91" fill-rule="evenodd"></path></g></svg>