<svg id="svg" version="1.1" xmlns="http://www.w3.org/2000/svg" xmlns:xlink="http://www.w3.org/1999/xlink" width="400" height="400" viewBox="0, 0, 400,400"><g id="svgg"><path id="path0" d="M152.400 0.400 C 152.400 0.649,150.150 0.800,146.450 0.800 C 139.389 0.800,138.000 1.005,138.000 2.050 C 138.000 2.746,137.613 2.800,132.600 2.800 C 127.765 2.800,127.118 2.882,126.414 3.586 C 125.746 4.254,124.975 4.390,121.314 4.486 C 117.277 4.593,116.975 4.658,116.605 5.500 C 116.239 6.334,115.955 6.400,112.738 6.400 C 108.925 6.400,108.000 6.604,108.000 7.443 C 108.000 7.866,107.327 8.000,105.200 8.000 C 102.667 8.000,102.400 8.076,102.400 8.800 C 102.400 9.565,101.801 9.810,100.419 9.611 C 98.635 9.355,95.498 10.105,95.307 10.835 C 95.136 11.488,94.732 11.600,92.553 11.600 C 89.312 11.600,88.573 13.289,91.591 13.799 C 94.023 14.209,95.600 13.736,95.600 12.595 C 95.600 11.769,95.736 11.686,96.700 11.920 C 98.678 12.401,102.158 12.165,103.505 11.458 C 104.252 11.067,106.220 10.670,108.105 10.531 C 109.930 10.396,112.025 9.981,112.800 9.600 C 113.570 9.222,115.509 8.795,117.108 8.653 C 118.796 8.502,120.640 8.059,121.502 7.596 C 122.607 7.004,123.759 6.800,125.994 6.799 C 128.244 6.797,129.314 6.605,130.249 6.035 C 131.234 5.435,132.448 5.245,135.982 5.137 C 139.913 5.017,140.538 4.901,141.051 4.200 C 141.572 3.488,142.129 3.395,146.118 3.353 C 155.329 3.257,155.089 3.284,156.084 2.211 L 157.001 1.223 168.728 1.188 C 175.178 1.169,180.713 1.055,181.028 0.934 C 182.972 0.188,180.149 0.000,167.000 0.000 C 157.533 0.000,152.400 0.141,152.400 0.400 M218.400 0.373 C 218.400 1.169,220.597 1.317,231.800 1.275 C 243.853 1.230,244.800 1.297,244.800 2.195 C 244.800 3.049,247.001 3.357,252.431 3.263 C 257.132 3.182,257.539 3.237,258.621 4.088 C 259.632 4.884,260.370 5.025,264.430 5.200 C 267.739 5.342,269.289 5.573,269.802 6.000 C 270.270 6.389,271.828 6.685,274.241 6.841 C 276.691 6.999,278.306 7.309,278.976 7.747 C 279.563 8.132,281.216 8.509,282.896 8.642 C 284.493 8.768,286.520 9.196,287.400 9.593 C 288.280 9.990,290.400 10.422,292.112 10.553 C 293.902 10.690,295.771 11.090,296.512 11.494 C 297.472 12.018,298.637 12.184,301.089 12.148 C 303.977 12.105,304.407 12.190,304.615 12.849 C 304.922 13.814,306.364 14.163,308.833 13.871 C 310.718 13.647,310.800 13.679,310.800 14.619 C 310.800 15.530,310.943 15.600,312.803 15.600 C 314.440 15.600,314.964 15.782,315.675 16.600 C 316.349 17.376,316.929 17.600,318.258 17.600 C 319.527 17.600,320.076 17.795,320.375 18.353 C 320.601 18.776,321.433 19.230,322.267 19.386 C 323.085 19.540,324.395 20.001,325.178 20.410 C 328.267 22.029,329.863 22.682,331.277 22.907 C 332.090 23.036,333.291 23.539,333.946 24.024 C 334.743 24.613,335.490 24.838,336.198 24.702 C 337.044 24.541,337.331 24.692,337.619 25.450 C 337.882 26.143,338.288 26.400,339.118 26.400 C 339.833 26.400,340.579 26.771,341.125 27.400 C 341.603 27.950,342.226 28.400,342.508 28.400 C 342.791 28.400,343.330 28.760,343.707 29.200 C 344.084 29.640,344.760 30.000,345.209 30.000 C 346.168 30.000,348.583 32.285,348.994 33.580 C 349.213 34.271,349.505 34.435,350.259 34.291 L 351.240 34.103 351.177 71.952 C 351.143 92.807,351.269 109.755,351.457 109.700 C 351.960 109.553,352.104 34.744,351.602 34.242 C 351.381 34.021,351.200 32.972,351.200 31.911 C 351.200 30.196,351.079 29.928,350.105 29.491 C 349.504 29.221,348.694 28.685,348.305 28.300 C 347.917 27.915,347.150 27.600,346.600 27.600 C 345.867 27.600,345.600 27.387,345.600 26.800 C 345.600 26.239,345.332 25.998,344.700 25.995 C 343.094 25.985,342.078 25.542,341.874 24.763 C 341.724 24.186,341.315 24.000,340.200 24.000 C 339.062 24.000,338.677 23.818,338.516 23.200 C 338.353 22.578,337.970 22.400,336.797 22.400 C 335.520 22.400,335.248 22.246,335.036 21.400 C 334.822 20.549,334.554 20.400,333.239 20.400 C 332.030 20.400,331.648 20.226,331.484 19.600 C 331.319 18.967,330.938 18.800,329.664 18.800 C 328.439 18.800,327.997 18.620,327.815 18.048 C 327.570 17.276,326.080 16.800,323.913 16.800 C 323.058 16.800,322.666 16.574,322.514 15.994 C 322.398 15.550,322.100 15.211,321.852 15.241 C 319.435 15.529,317.200 15.146,317.200 14.445 C 317.200 13.628,316.123 13.331,312.800 13.233 C 311.545 13.196,310.799 12.941,310.336 12.390 C 309.811 11.766,309.171 11.600,307.283 11.600 C 305.266 11.600,304.862 11.481,304.693 10.835 C 304.502 10.105,301.365 9.355,299.581 9.611 C 298.199 9.810,297.600 9.565,297.600 8.800 C 297.600 8.078,297.333 8.000,294.862 8.000 C 292.632 8.000,291.990 7.852,291.400 7.200 C 290.783 6.518,290.168 6.400,287.233 6.400 C 284.046 6.400,283.760 6.333,283.395 5.500 C 283.027 4.661,282.717 4.592,278.827 4.485 C 275.211 4.386,274.581 4.266,274.105 3.585 C 273.602 2.867,273.065 2.800,267.824 2.800 C 262.583 2.800,262.077 2.737,261.900 2.060 C 261.640 1.067,259.992 0.851,252.400 0.813 C 248.744 0.795,246.145 0.622,246.067 0.391 C 245.891 -0.125,218.400 -0.144,218.400 0.373 M84.119 13.480 C 83.634 13.574,83.127 13.999,82.992 14.425 C 82.785 15.079,82.369 15.200,80.336 15.200 C 78.262 15.200,77.896 15.312,77.716 16.000 C 77.553 16.624,77.170 16.800,75.979 16.800 C 73.997 16.800,72.400 17.420,72.400 18.190 C 72.400 18.648,71.942 18.800,70.563 18.800 C 69.079 18.800,68.686 18.950,68.522 19.578 C 68.375 20.137,67.907 20.391,66.859 20.478 C 65.798 20.567,65.292 20.846,65.005 21.500 C 64.709 22.176,64.276 22.400,63.268 22.400 C 62.289 22.400,61.872 22.604,61.728 23.154 C 61.595 23.663,61.036 23.988,60.009 24.152 C 59.172 24.286,58.385 24.663,58.259 24.991 C 58.133 25.318,57.280 25.706,56.362 25.852 C 55.216 26.036,54.633 26.351,54.500 26.860 C 54.380 27.319,53.945 27.600,53.353 27.600 C 52.681 27.600,52.400 27.826,52.400 28.365 C 52.400 28.942,52.017 29.194,50.839 29.393 C 49.132 29.682,48.815 30.228,48.805 32.900 C 48.798 34.885,50.468 35.128,51.127 33.238 C 51.350 32.598,51.888 31.963,52.323 31.824 C 52.758 31.686,53.206 31.219,53.319 30.787 C 53.456 30.263,53.867 30.000,54.547 30.000 C 55.109 30.000,55.891 29.662,56.284 29.250 C 56.678 28.837,57.405 28.375,57.899 28.223 C 58.394 28.071,58.899 27.546,59.022 27.056 C 59.209 26.308,59.465 26.192,60.616 26.326 C 61.780 26.462,62.044 26.336,62.364 25.494 C 62.687 24.645,62.983 24.507,64.402 24.545 C 65.594 24.576,66.173 24.392,66.451 23.894 C 66.669 23.504,67.314 23.198,67.920 23.196 C 68.514 23.194,69.900 22.750,71.000 22.209 C 72.100 21.668,73.291 21.219,73.646 21.213 C 74.001 21.206,74.750 20.840,75.309 20.400 C 75.869 19.960,76.658 19.598,77.063 19.595 C 78.507 19.584,79.577 19.102,79.814 18.357 C 80.005 17.754,80.441 17.600,81.955 17.600 C 83.504 17.600,84.023 17.407,84.761 16.559 C 85.479 15.733,85.926 15.558,86.933 15.712 C 88.650 15.973,89.608 15.406,89.507 14.189 C 89.424 13.185,87.170 12.888,84.119 13.480 M187.600 105.496 C 187.050 105.596,186.420 105.824,186.199 106.005 C 185.978 106.186,184.154 106.517,182.145 106.741 C 179.897 106.992,177.899 107.467,176.952 107.975 C 176.018 108.475,174.667 108.800,173.520 108.800 C 172.038 108.800,171.535 108.973,171.200 109.600 C 170.888 110.184,170.362 110.400,169.258 110.400 C 168.142 110.400,167.516 110.663,166.875 111.400 C 166.220 112.153,165.613 112.400,164.417 112.400 C 163.263 112.400,162.716 112.609,162.419 113.164 C 162.175 113.620,161.380 114.034,160.444 114.192 C 159.370 114.374,158.815 114.699,158.677 115.229 C 158.525 115.808,158.121 116.000,157.052 116.000 C 156.038 116.000,155.505 116.230,155.200 116.800 C 154.927 117.311,154.362 117.600,153.640 117.600 C 153.017 117.600,152.050 117.960,151.491 118.400 C 150.931 118.840,150.303 119.200,150.095 119.200 C 149.887 119.200,149.231 119.650,148.638 120.200 C 148.044 120.750,147.364 121.200,147.125 121.200 C 146.887 121.200,146.288 121.605,145.795 122.100 C 145.302 122.595,144.368 123.463,143.719 124.028 C 143.071 124.594,142.423 125.362,142.280 125.736 C 142.136 126.110,141.468 126.526,140.795 126.661 C 140.122 126.796,139.392 127.242,139.172 127.653 C 138.952 128.064,138.577 128.400,138.339 128.400 C 138.101 128.400,137.208 129.120,136.354 130.000 C 135.500 130.880,134.648 131.600,134.460 131.600 C 134.035 131.600,130.000 135.974,130.000 136.435 C 130.000 136.620,129.640 136.965,129.200 137.200 C 128.760 137.435,128.400 137.885,128.400 138.200 C 128.400 138.515,128.040 138.965,127.600 139.200 C 127.160 139.435,126.800 139.968,126.800 140.384 C 126.800 140.800,125.540 142.390,124.000 143.918 C 122.460 145.445,121.200 146.873,121.200 147.089 C 121.200 147.306,120.750 147.969,120.200 148.562 C 119.650 149.156,119.200 149.829,119.200 150.058 C 119.200 150.286,118.840 150.931,118.400 151.491 C 117.960 152.050,117.600 153.017,117.600 153.640 C 117.600 154.362,117.311 154.927,116.800 155.200 C 116.230 155.505,116.000 156.038,116.000 157.052 C 116.000 158.115,115.807 158.525,115.238 158.674 C 114.736 158.806,114.326 159.473,114.032 160.637 C 113.781 161.636,113.353 162.400,113.046 162.400 C 112.703 162.400,112.432 163.040,112.307 164.145 C 112.190 165.188,111.767 166.233,111.255 166.745 C 110.685 167.315,110.400 168.101,110.400 169.104 C 110.400 170.134,110.167 170.753,109.659 171.070 C 109.146 171.391,108.836 172.228,108.653 173.790 C 108.507 175.032,108.132 176.442,107.820 176.924 C 107.508 177.406,107.133 178.880,106.986 180.200 C 106.840 181.520,106.547 183.410,106.335 184.400 C 105.304 189.221,105.134 192.069,105.269 202.246 C 105.366 209.541,105.561 213.274,105.866 213.646 C 106.116 213.951,106.446 215.558,106.599 217.218 L 106.879 220.237 105.318 221.318 C 104.459 221.913,103.407 222.406,102.978 222.412 C 102.550 222.419,101.480 222.868,100.600 223.410 C 99.720 223.952,98.499 224.397,97.887 224.398 C 97.272 224.399,96.673 224.666,96.546 224.996 C 96.420 225.324,95.597 225.808,94.717 226.072 C 93.837 226.336,93.028 226.783,92.920 227.065 C 92.811 227.347,92.105 227.694,91.351 227.836 C 90.596 227.977,89.797 228.432,89.575 228.847 C 89.323 229.318,88.739 229.600,88.014 229.600 C 86.893 229.600,85.600 230.472,85.600 231.229 C 85.600 231.433,84.863 231.600,83.963 231.600 C 82.662 231.600,82.282 231.764,82.116 232.400 C 81.892 233.255,81.704 233.319,79.721 233.212 C 78.860 233.165,78.209 233.414,77.732 233.971 C 77.311 234.463,76.529 234.805,75.811 234.813 C 75.145 234.819,73.700 235.268,72.600 235.809 C 71.500 236.350,70.403 236.794,70.162 236.796 C 69.921 236.798,69.398 237.160,69.000 237.600 C 68.602 238.040,67.878 238.400,67.392 238.400 C 66.906 238.400,66.064 238.749,65.522 239.175 C 64.980 239.602,64.051 240.072,63.458 240.221 C 62.864 240.370,62.197 240.831,61.975 241.246 C 61.719 241.724,61.138 242.000,60.386 242.000 C 59.733 242.000,58.840 242.360,58.400 242.800 C 57.960 243.240,57.338 243.600,57.019 243.600 C 55.063 243.600,53.489 245.676,55.005 246.257 C 56.224 246.725,59.105 246.007,59.321 245.182 C 59.482 244.563,59.875 244.400,61.200 244.400 C 62.538 244.400,62.917 244.239,63.084 243.600 C 63.199 243.160,63.407 242.788,63.547 242.773 C 63.686 242.758,64.647 242.683,65.681 242.608 C 67.830 242.451,68.400 242.193,68.400 241.376 C 68.400 240.972,68.870 240.800,69.973 240.800 C 71.179 240.800,71.604 240.619,71.793 240.023 C 71.967 239.473,72.472 239.210,73.520 239.123 C 74.602 239.033,75.106 238.758,75.395 238.100 C 75.706 237.391,76.116 237.200,77.332 237.200 C 78.538 237.200,78.921 237.026,79.084 236.400 C 79.242 235.798,79.630 235.600,80.655 235.600 C 81.720 235.600,82.117 235.382,82.473 234.600 C 82.842 233.791,83.216 233.600,84.437 233.600 C 85.595 233.600,86.005 233.414,86.200 232.800 C 86.413 232.130,86.805 232.000,88.613 232.000 C 90.311 232.000,90.857 231.841,91.171 231.253 C 91.415 230.798,92.217 230.404,93.226 230.242 C 94.404 230.054,94.940 229.750,95.087 229.189 C 95.249 228.571,95.637 228.400,96.884 228.400 C 98.138 228.400,98.519 228.231,98.684 227.600 C 98.831 227.040,99.230 226.800,100.014 226.800 C 101.656 226.800,102.400 226.412,102.400 225.557 C 102.400 224.940,102.697 224.800,104.000 224.800 C 105.318 224.800,105.600 224.663,105.600 224.023 C 105.600 223.395,105.926 223.222,107.300 223.123 L 109.000 223.000 109.110 216.265 C 109.215 209.793,109.188 209.522,108.410 209.318 C 107.159 208.991,107.150 191.650,108.400 190.400 C 109.107 189.693,109.200 189.067,109.200 185.000 C 109.200 180.753,109.258 180.400,109.957 180.400 C 110.978 180.400,111.200 179.654,111.200 176.214 C 111.200 173.630,111.292 173.269,112.000 173.084 C 112.637 172.918,112.800 172.538,112.800 171.225 C 112.800 170.163,113.004 169.497,113.372 169.355 C 114.043 169.098,114.800 167.126,114.800 165.637 C 114.800 165.019,115.133 164.384,115.615 164.084 C 116.063 163.804,116.401 163.356,116.367 163.087 C 116.093 160.934,116.446 159.200,117.157 159.200 C 118.019 159.200,118.400 158.455,118.400 156.767 C 118.400 155.867,118.583 155.600,119.200 155.600 C 119.787 155.600,120.000 155.333,120.000 154.600 C 120.000 153.867,120.213 153.600,120.800 153.600 C 121.361 153.600,121.602 153.331,121.607 152.700 C 121.611 152.205,122.061 151.376,122.607 150.858 C 123.153 150.340,123.600 149.596,123.600 149.205 C 123.600 148.813,123.960 148.399,124.400 148.284 C 124.840 148.169,125.200 147.796,125.200 147.456 C 125.200 147.115,125.650 146.386,126.200 145.836 C 126.750 145.286,127.200 144.480,127.200 144.045 C 127.200 143.602,127.556 143.141,128.011 142.997 C 128.476 142.849,128.774 142.454,128.711 142.070 C 128.639 141.636,128.917 141.355,129.500 141.272 C 130.046 141.195,130.400 140.866,130.400 140.436 C 130.400 140.047,130.850 139.523,131.400 139.273 C 131.950 139.022,132.400 138.543,132.400 138.209 C 132.400 137.867,132.751 137.600,133.200 137.600 C 133.724 137.600,134.000 137.333,134.000 136.827 C 134.000 136.402,134.351 135.943,134.780 135.806 C 135.208 135.670,135.664 135.228,135.793 134.823 C 135.921 134.418,136.381 133.994,136.813 133.881 C 137.246 133.767,137.600 133.388,137.600 133.037 C 137.600 132.687,137.849 132.400,138.154 132.400 C 138.459 132.400,139.003 131.950,139.363 131.400 C 139.724 130.850,140.284 130.400,140.609 130.400 C 140.934 130.400,141.200 130.040,141.200 129.600 C 141.200 129.055,141.467 128.800,142.037 128.800 C 142.538 128.800,142.959 128.479,143.084 128.000 C 143.199 127.560,143.567 127.200,143.901 127.200 C 144.235 127.200,144.925 126.750,145.435 126.200 C 145.945 125.650,146.747 125.200,147.218 125.200 C 147.738 125.200,148.157 124.886,148.284 124.400 C 148.399 123.960,148.829 123.600,149.239 123.600 C 149.701 123.600,150.080 123.219,150.236 122.600 C 150.450 121.748,150.717 121.600,152.043 121.600 C 153.333 121.600,153.600 121.463,153.600 120.800 C 153.600 120.219,153.867 120.000,154.572 120.000 C 155.267 120.000,155.581 119.750,155.672 119.123 C 155.773 118.428,156.091 118.232,157.200 118.178 C 159.201 118.080,159.200 118.080,159.200 117.200 C 159.200 116.498,159.467 116.400,161.377 116.400 C 163.035 116.400,163.679 116.224,164.077 115.664 C 164.406 115.202,165.342 114.831,166.600 114.666 C 167.874 114.498,168.841 114.112,169.264 113.601 C 169.731 113.038,170.415 112.800,171.564 112.800 C 172.645 112.800,173.461 112.539,173.970 112.030 C 174.523 111.477,175.395 111.234,177.070 111.165 C 179.992 111.045,180.400 110.897,180.400 109.957 C 180.400 109.254,180.762 109.200,185.437 109.200 C 190.138 109.200,190.489 109.147,190.684 108.400 C 190.886 107.630,191.230 107.600,200.000 107.600 C 208.770 107.600,209.114 107.630,209.316 108.400 C 209.511 109.147,209.862 109.200,214.563 109.200 C 219.238 109.200,219.600 109.254,219.600 109.957 C 219.600 110.918,220.013 111.056,223.200 111.154 C 225.197 111.216,225.950 111.412,226.448 111.997 C 226.933 112.569,227.733 112.789,229.648 112.880 C 231.763 112.979,232.181 113.113,232.091 113.663 C 232.009 114.161,232.408 114.397,233.691 114.609 C 234.631 114.764,235.722 115.231,236.116 115.646 C 236.629 116.187,237.391 116.400,238.816 116.400 C 240.496 116.400,240.800 116.516,240.800 117.157 C 240.800 118.012,241.544 118.400,243.186 118.400 C 243.970 118.400,244.369 118.640,244.516 119.200 C 244.641 119.679,245.062 120.000,245.563 120.000 C 246.125 120.000,246.400 120.255,246.400 120.777 C 246.400 121.405,246.726 121.578,248.100 121.677 C 249.513 121.779,249.822 121.952,249.928 122.700 C 250.007 123.256,250.333 123.600,250.781 123.600 C 251.180 123.600,251.601 123.960,251.716 124.400 C 251.882 125.036,252.262 125.200,253.563 125.200 C 254.958 125.200,255.200 125.324,255.200 126.037 C 255.200 126.534,255.520 126.959,255.987 127.081 C 256.419 127.194,256.882 127.627,257.014 128.043 C 257.146 128.459,257.602 128.800,258.027 128.800 C 258.453 128.800,258.800 129.074,258.800 129.410 C 258.800 129.745,259.225 130.182,259.745 130.379 C 260.265 130.577,260.800 131.023,260.933 131.369 C 261.066 131.716,261.430 132.000,261.741 132.000 C 262.052 132.000,262.404 132.373,262.524 132.830 C 262.643 133.286,263.097 133.753,263.533 133.867 C 263.969 133.981,264.416 134.417,264.526 134.837 C 264.635 135.257,264.991 135.600,265.316 135.600 C 265.641 135.600,266.004 135.973,266.124 136.430 C 266.243 136.886,266.714 137.357,267.170 137.476 C 267.627 137.596,268.000 137.948,268.000 138.259 C 268.000 138.570,268.284 138.934,268.631 139.067 C 268.977 139.200,269.423 139.735,269.621 140.255 C 269.818 140.775,270.255 141.200,270.590 141.200 C 270.926 141.200,271.200 141.547,271.200 141.973 C 271.200 142.398,271.560 142.860,272.000 143.000 C 272.440 143.140,272.800 143.602,272.800 144.027 C 272.800 144.452,273.066 144.800,273.391 144.800 C 273.716 144.800,274.256 145.219,274.591 145.731 C 275.491 147.104,279.732 147.079,279.928 145.700 C 280.038 144.921,280.295 144.800,281.828 144.800 C 283.430 144.800,283.600 144.708,283.600 143.843 C 283.600 142.256,280.695 142.033,278.611 143.460 C 277.402 144.288,276.163 144.108,275.437 143.000 C 275.076 142.450,274.519 142.000,274.198 142.000 C 273.878 142.000,273.496 141.505,273.351 140.900 C 273.206 140.295,272.798 139.492,272.444 139.116 C 272.090 138.739,271.440 137.960,271.000 137.384 C 269.221 135.055,265.837 131.600,265.335 131.600 C 265.041 131.600,264.800 131.326,264.800 130.990 C 264.800 130.655,264.350 130.209,263.800 130.000 C 263.250 129.791,262.800 129.431,262.800 129.201 C 262.800 128.971,262.350 128.578,261.800 128.327 C 261.250 128.077,260.800 127.651,260.800 127.380 C 260.800 127.110,260.170 126.771,259.400 126.626 C 258.630 126.482,258.000 126.205,258.000 126.010 C 258.000 125.488,255.377 122.800,254.867 122.800 C 254.626 122.800,254.235 122.440,254.000 122.000 C 253.765 121.560,253.336 121.200,253.048 121.200 C 252.760 121.200,252.202 120.845,251.809 120.410 C 251.416 119.976,250.713 119.501,250.247 119.355 C 249.781 119.209,248.971 118.755,248.446 118.345 C 247.921 117.935,246.983 117.600,246.360 117.600 C 245.638 117.600,245.073 117.311,244.800 116.800 C 244.498 116.236,243.962 116.000,242.986 116.000 C 242.035 116.000,241.600 115.816,241.600 115.414 C 241.600 114.575,240.472 114.000,238.827 114.000 C 238.402 114.000,237.940 113.640,237.800 113.200 C 237.605 112.586,237.195 112.400,236.031 112.400 C 234.970 112.400,234.194 112.101,233.438 111.400 C 232.690 110.707,231.903 110.400,230.876 110.400 C 229.865 110.400,229.245 110.164,228.930 109.659 C 228.611 109.149,227.777 108.837,226.255 108.658 C 225.038 108.515,223.448 108.059,222.721 107.645 C 221.832 107.139,220.243 106.818,217.861 106.663 C 215.890 106.535,214.047 106.205,213.700 105.917 C 213.088 105.409,190.137 105.039,187.600 105.496 M348.100 112.234 C 347.385 112.547,346.800 113.072,346.800 113.401 C 346.800 114.006,346.609 114.078,344.800 114.157 C 344.169 114.184,343.653 114.536,343.401 115.110 C 343.072 115.860,342.728 116.005,341.450 115.929 C 340.264 115.859,339.731 116.045,339.185 116.719 C 338.706 117.311,338.031 117.600,337.125 117.600 C 336.384 117.600,335.423 117.844,334.989 118.143 C 334.555 118.442,333.480 118.918,332.600 119.202 C 331.720 119.486,330.373 120.051,329.606 120.459 C 328.839 120.866,327.918 121.200,327.560 121.200 C 327.201 121.200,326.450 121.560,325.891 122.000 C 325.331 122.440,324.596 122.800,324.258 122.800 C 323.919 122.800,323.156 123.250,322.562 123.800 C 321.942 124.375,321.004 124.800,320.356 124.800 C 319.664 124.800,319.074 125.089,318.829 125.547 C 318.591 125.990,317.794 126.395,316.862 126.544 C 315.754 126.721,315.233 127.029,315.085 127.597 C 314.919 128.232,314.540 128.400,313.281 128.400 C 311.901 128.400,311.652 128.539,311.428 129.432 C 311.189 130.382,311.045 130.444,309.626 130.204 C 308.400 129.997,307.932 130.102,307.342 130.717 C 306.934 131.142,305.821 131.589,304.869 131.711 C 303.917 131.833,302.825 132.215,302.443 132.561 C 302.060 132.907,301.184 133.303,300.494 133.441 C 299.805 133.579,298.934 134.031,298.558 134.446 C 298.183 134.861,297.478 135.200,296.992 135.200 C 296.506 135.200,295.679 135.534,295.154 135.942 C 294.629 136.350,293.541 136.899,292.735 137.161 C 291.930 137.424,291.170 137.900,291.048 138.219 C 290.925 138.539,290.448 138.800,289.986 138.800 C 288.827 138.800,287.600 139.515,287.600 140.190 C 287.600 140.550,287.062 140.796,286.100 140.876 C 284.465 141.011,283.669 142.545,284.975 143.046 C 286.118 143.484,288.474 142.804,288.691 141.974 C 288.850 141.366,289.249 141.200,290.550 141.200 C 291.774 141.200,292.338 140.991,292.707 140.400 C 293.038 139.870,293.644 139.598,294.503 139.595 C 296.579 139.586,297.600 139.176,297.600 138.353 C 297.600 137.727,297.904 137.600,299.400 137.600 C 300.933 137.600,301.200 137.481,301.200 136.800 C 301.200 136.130,301.467 136.000,302.837 136.000 C 304.138 136.000,304.518 135.836,304.684 135.200 C 304.831 134.640,305.230 134.400,306.014 134.400 C 307.656 134.400,308.400 134.012,308.400 133.157 C 308.400 132.535,308.698 132.400,310.067 132.400 C 310.983 132.400,311.622 132.289,311.486 132.152 C 311.051 131.717,312.307 130.800,313.339 130.800 C 314.858 130.800,315.600 130.392,315.600 129.557 C 315.600 128.897,315.913 128.800,318.037 128.800 C 320.117 128.800,320.505 128.685,320.679 128.021 C 320.832 127.435,321.293 127.212,322.541 127.121 C 323.912 127.021,324.222 126.844,324.328 126.100 C 324.437 125.330,324.698 125.200,326.132 125.200 C 327.374 125.200,327.937 124.993,328.307 124.400 C 328.607 123.919,329.244 123.598,329.903 123.595 C 331.693 123.586,332.758 123.162,333.014 122.357 C 333.178 121.840,333.628 121.600,334.431 121.600 C 335.113 121.600,335.896 121.264,336.293 120.800 C 336.670 120.360,337.471 120.000,338.073 120.000 C 338.676 120.000,339.491 119.664,339.884 119.253 C 340.278 118.842,341.295 118.380,342.144 118.227 C 343.190 118.037,343.754 117.698,343.891 117.174 C 344.052 116.557,344.450 116.400,345.847 116.400 C 347.021 116.400,347.845 116.155,348.342 115.658 C 348.750 115.250,349.560 114.796,350.142 114.650 C 351.183 114.389,351.805 112.000,350.833 112.000 C 350.631 112.000,350.226 111.925,349.933 111.833 C 349.640 111.741,348.815 111.921,348.100 112.234 M189.271 141.569 C 187.449 141.737,186.633 141.998,186.351 142.501 C 186.041 143.055,185.418 143.200,183.343 143.200 C 181.062 143.200,180.698 143.303,180.516 144.000 C 180.330 144.711,179.033 145.079,177.514 144.852 C 176.768 144.741,175.200 145.647,175.200 146.190 C 175.200 146.633,174.770 146.800,173.627 146.800 C 172.405 146.800,171.997 146.979,171.800 147.600 C 171.660 148.040,171.211 148.400,170.801 148.400 C 170.333 148.400,170.008 148.734,169.928 149.300 C 169.825 150.025,169.505 150.224,168.280 150.325 C 167.103 150.422,166.678 150.668,166.393 151.418 C 166.143 152.076,165.822 152.307,165.389 152.140 C 164.959 151.975,164.681 152.169,164.533 152.735 C 164.412 153.196,163.973 153.682,163.557 153.814 C 163.141 153.946,162.800 154.391,162.800 154.803 C 162.800 155.379,162.455 155.580,161.300 155.676 C 160.197 155.767,159.695 156.038,159.405 156.700 C 159.188 157.195,158.693 157.600,158.305 157.600 C 157.898 157.600,157.600 157.898,157.600 158.305 C 157.600 158.693,157.195 159.188,156.700 159.405 C 156.038 159.695,155.767 160.197,155.676 161.300 C 155.580 162.455,155.379 162.800,154.803 162.800 C 154.391 162.800,153.940 163.160,153.800 163.600 C 153.660 164.040,153.292 164.400,152.981 164.400 C 152.670 164.400,152.302 164.850,152.164 165.400 C 152.011 166.012,151.629 166.400,151.180 166.400 C 150.602 166.400,150.420 166.763,150.323 168.100 C 150.221 169.513,150.048 169.822,149.300 169.928 C 148.728 170.009,148.400 170.332,148.400 170.814 C 148.400 171.231,148.034 171.768,147.587 172.007 C 147.140 172.246,146.802 172.657,146.835 172.921 C 147.004 174.274,146.743 175.200,146.190 175.200 C 145.420 175.200,144.800 176.797,144.800 178.779 C 144.800 179.970,144.624 180.353,144.000 180.516 C 143.300 180.699,143.200 181.062,143.200 183.418 C 143.200 185.481,143.042 186.227,142.527 186.604 C 140.698 187.942,140.632 211.639,142.456 212.218 C 143.105 212.424,143.200 212.891,143.200 215.864 C 143.200 218.938,143.279 219.296,144.000 219.484 C 144.556 219.630,144.800 220.030,144.800 220.797 C 144.800 222.927,145.309 224.503,146.061 224.700 C 146.596 224.840,146.800 225.267,146.800 226.243 C 146.800 227.160,147.057 227.754,147.600 228.093 C 148.040 228.368,148.400 228.906,148.400 229.289 C 148.400 229.698,148.813 230.088,149.400 230.236 C 150.252 230.450,150.400 230.717,150.400 232.043 C 150.400 233.333,150.537 233.600,151.200 233.600 C 151.745 233.600,152.000 233.867,152.000 234.437 C 152.000 234.934,152.320 235.359,152.787 235.481 C 153.219 235.594,153.682 236.027,153.814 236.443 C 153.946 236.859,154.391 237.200,154.803 237.200 C 155.379 237.200,155.580 237.545,155.676 238.700 C 155.767 239.803,156.038 240.305,156.700 240.595 C 157.195 240.812,157.600 241.307,157.600 241.695 C 157.600 242.102,157.898 242.400,158.305 242.400 C 158.693 242.400,159.188 242.805,159.405 243.300 C 159.695 243.962,160.197 244.233,161.300 244.324 C 162.590 244.431,162.800 244.585,162.800 245.424 C 162.800 246.122,163.020 246.400,163.573 246.400 C 163.998 246.400,164.460 246.760,164.600 247.200 C 164.740 247.640,165.202 248.000,165.627 248.000 C 166.126 248.000,166.400 248.276,166.400 248.777 C 166.400 249.405,166.726 249.578,168.100 249.677 C 169.513 249.779,169.822 249.952,169.928 250.700 C 170.008 251.266,170.333 251.600,170.801 251.600 C 171.211 251.600,171.660 251.960,171.800 252.400 C 171.997 253.021,172.405 253.200,173.627 253.200 C 174.773 253.200,175.200 253.366,175.200 253.813 C 175.200 254.656,176.480 255.107,179.053 255.169 C 179.955 255.191,180.365 255.424,180.516 256.000 C 180.704 256.721,181.062 256.800,184.136 256.800 C 187.112 256.800,187.576 256.895,187.783 257.546 C 188.361 259.366,211.639 259.366,212.217 257.546 C 212.424 256.895,212.888 256.800,215.864 256.800 C 218.938 256.800,219.296 256.721,219.484 256.000 C 219.654 255.351,220.030 255.200,221.473 255.200 C 223.496 255.200,224.800 254.646,224.800 253.786 C 224.800 253.367,225.266 253.200,226.437 253.200 C 227.714 253.200,228.119 253.031,228.275 252.434 C 228.385 252.013,228.909 251.559,229.438 251.426 C 230.049 251.273,230.400 250.896,230.400 250.392 C 230.400 249.735,230.672 249.600,232.000 249.600 C 233.333 249.600,233.600 249.467,233.600 248.800 C 233.600 248.255,233.867 248.000,234.437 248.000 C 234.938 248.000,235.359 247.679,235.484 247.200 C 235.599 246.760,235.990 246.400,236.352 246.400 C 236.714 246.400,237.188 245.995,237.405 245.500 C 237.678 244.878,238.208 244.561,239.120 244.473 C 240.087 244.380,240.539 244.086,240.810 243.373 C 241.014 242.838,241.455 242.400,241.790 242.400 C 242.126 242.400,242.400 242.126,242.400 241.790 C 242.400 241.455,242.850 241.009,243.400 240.800 C 244.238 240.481,244.400 240.159,244.400 238.810 C 244.400 237.359,244.499 237.200,245.400 237.200 C 246.133 237.200,246.400 236.987,246.400 236.400 C 246.400 235.960,246.667 235.600,246.992 235.600 C 247.318 235.600,247.698 235.150,247.836 234.600 C 247.993 233.974,248.370 233.600,248.843 233.600 C 249.457 233.600,249.600 233.303,249.600 232.028 C 249.600 230.702,249.741 230.436,250.500 230.328 C 251.072 230.247,251.446 229.879,251.525 229.319 C 251.594 228.834,251.999 228.327,252.425 228.192 C 253.019 228.004,253.200 227.578,253.200 226.373 C 253.200 225.230,253.367 224.800,253.810 224.800 C 254.353 224.800,255.259 223.232,255.148 222.486 C 254.921 220.967,255.289 219.670,256.000 219.484 C 256.700 219.301,256.800 218.938,256.800 216.582 C 256.800 214.533,256.959 213.772,257.464 213.403 C 258.450 212.682,258.742 209.621,258.742 200.000 C 258.742 190.379,258.450 187.318,257.464 186.597 C 256.959 186.228,256.800 185.467,256.800 183.418 C 256.800 181.062,256.700 180.699,256.000 180.516 C 255.376 180.353,255.200 179.970,255.200 178.779 C 255.200 176.797,254.580 175.200,253.810 175.200 C 253.381 175.200,253.200 174.789,253.200 173.814 C 253.200 172.838,252.964 172.302,252.400 172.000 C 251.960 171.765,251.600 171.231,251.600 170.814 C 251.600 170.332,251.272 170.009,250.700 169.928 C 249.952 169.822,249.779 169.513,249.677 168.100 C 249.579 166.749,249.400 166.400,248.805 166.400 C 248.332 166.400,248.008 166.067,247.928 165.500 C 247.847 164.930,247.543 164.620,247.100 164.656 C 246.613 164.694,246.400 164.420,246.400 163.756 C 246.400 163.009,246.186 162.800,245.424 162.800 C 244.585 162.800,244.431 162.590,244.324 161.300 C 244.233 160.197,243.962 159.695,243.300 159.405 C 242.805 159.188,242.400 158.693,242.400 158.305 C 242.400 157.898,242.102 157.600,241.695 157.600 C 241.307 157.600,240.812 157.195,240.595 156.700 C 240.305 156.038,239.803 155.767,238.700 155.676 C 237.545 155.580,237.200 155.379,237.200 154.803 C 237.200 154.391,236.859 153.946,236.443 153.814 C 236.027 153.682,235.594 153.219,235.481 152.787 C 235.364 152.339,234.934 152.000,234.484 152.000 C 234.030 152.000,233.604 151.660,233.484 151.200 C 233.325 150.593,232.938 150.400,231.881 150.400 C 230.727 150.400,230.443 150.227,230.236 149.400 C 230.087 148.808,229.698 148.400,229.281 148.400 C 228.894 148.400,228.270 148.040,227.893 147.600 C 227.496 147.136,226.713 146.800,226.031 146.800 C 225.214 146.800,224.778 146.561,224.606 146.017 C 224.411 145.404,223.852 145.178,222.013 144.970 C 220.187 144.763,219.625 144.538,219.472 143.952 C 219.299 143.291,218.867 143.200,215.884 143.200 C 212.926 143.200,212.469 143.106,212.301 142.463 C 212.001 141.318,197.919 140.772,189.271 141.569 M210.290 144.424 C 210.519 145.298,211.558 145.588,214.486 145.595 C 216.304 145.599,216.854 145.753,217.171 146.347 C 217.416 146.803,218.218 147.197,219.239 147.360 C 220.157 147.507,221.358 147.981,221.908 148.413 C 222.458 148.846,223.129 149.200,223.400 149.200 C 223.671 149.200,224.321 149.533,224.846 149.939 C 225.371 150.345,226.326 150.807,226.968 150.964 C 227.611 151.121,228.580 151.598,229.122 152.025 C 229.664 152.451,230.624 152.800,231.254 152.800 C 231.982 152.800,232.400 153.009,232.400 153.373 C 232.400 153.688,232.777 154.066,233.239 154.212 C 233.700 154.359,236.461 156.891,239.374 159.839 C 242.287 162.788,244.865 165.200,245.103 165.200 C 245.341 165.200,245.652 165.728,245.794 166.372 C 245.936 167.017,246.310 167.759,246.626 168.021 C 246.942 168.283,247.200 168.801,247.200 169.171 C 247.200 169.542,247.650 170.455,248.200 171.200 C 248.750 171.945,249.200 172.868,249.200 173.249 C 249.200 173.631,249.433 174.181,249.717 174.471 C 250.001 174.762,250.481 175.630,250.783 176.400 C 251.085 177.170,251.587 178.101,251.900 178.469 C 252.212 178.837,252.568 179.886,252.691 180.801 C 252.826 181.807,253.208 182.648,253.657 182.928 C 254.207 183.272,254.400 183.873,254.400 185.246 C 254.400 188.085,254.794 189.505,255.643 189.727 C 256.841 190.040,256.817 209.966,255.618 210.279 C 254.727 210.512,254.140 213.202,254.542 215.211 C 254.732 216.162,254.594 216.516,253.841 217.010 C 253.201 217.429,252.833 218.141,252.685 219.244 C 252.565 220.134,252.204 221.163,251.881 221.531 C 251.559 221.899,251.160 222.650,250.995 223.200 C 250.830 223.750,250.359 224.678,249.948 225.262 C 249.536 225.846,249.200 226.586,249.200 226.908 C 249.200 227.229,248.838 227.952,248.396 228.514 C 247.955 229.075,247.476 230.118,247.334 230.830 C 247.022 232.389,247.165 232.219,240.300 239.184 C 237.275 242.253,234.800 244.952,234.800 245.182 C 234.800 245.412,234.447 245.600,234.016 245.600 C 233.584 245.600,232.909 245.939,232.516 246.353 C 232.122 246.768,231.217 247.232,230.505 247.384 C 229.792 247.537,229.105 247.830,228.977 248.037 C 228.850 248.243,228.121 248.673,227.359 248.992 C 226.596 249.310,225.695 249.847,225.357 250.185 C 225.019 250.523,224.362 250.800,223.897 250.800 C 223.432 250.800,222.653 251.175,222.165 251.633 C 221.678 252.091,220.534 252.565,219.624 252.688 C 218.713 252.810,217.751 253.218,217.484 253.594 C 217.138 254.084,216.205 254.342,214.213 254.500 C 212.680 254.622,211.372 254.874,211.307 255.061 C 210.848 256.362,210.529 256.401,199.992 256.449 C 194.184 256.475,189.377 256.340,189.310 256.148 C 188.912 255.017,188.290 254.716,185.956 254.521 C 184.375 254.389,183.217 254.079,182.921 253.706 C 182.658 253.375,181.588 252.945,180.544 252.750 C 179.501 252.555,178.265 252.037,177.798 251.598 C 177.331 251.159,176.614 250.800,176.206 250.800 C 175.797 250.800,175.179 250.544,174.831 250.230 C 173.803 249.302,169.582 247.200,168.747 247.200 C 168.322 247.200,167.876 246.941,167.754 246.624 C 167.633 246.308,167.008 245.934,166.367 245.793 C 165.725 245.652,165.200 245.347,165.200 245.114 C 165.200 244.882,162.770 242.295,159.800 239.364 C 156.830 236.433,154.400 233.854,154.400 233.633 C 154.400 233.412,154.064 232.909,153.653 232.516 C 153.242 232.122,152.782 231.116,152.631 230.279 C 152.480 229.442,152.096 228.658,151.778 228.536 C 151.460 228.414,151.200 228.009,151.200 227.635 C 151.200 227.261,150.750 226.345,150.200 225.600 C 149.650 224.855,149.200 223.947,149.200 223.584 C 149.200 223.221,148.859 222.615,148.442 222.238 C 148.025 221.860,147.558 220.713,147.404 219.687 C 147.241 218.601,146.826 217.613,146.409 217.322 C 145.879 216.950,145.650 216.126,145.524 214.136 C 145.430 212.659,145.183 211.391,144.976 211.319 C 143.959 210.962,143.526 210.419,143.570 209.552 C 143.597 209.029,143.659 204.370,143.709 199.200 C 143.798 190.045,143.823 189.777,144.700 188.900 C 145.432 188.168,145.600 187.555,145.600 185.614 C 145.600 183.678,145.743 183.151,146.362 182.821 C 146.882 182.542,147.211 181.777,147.400 180.400 C 147.580 179.088,147.924 178.255,148.386 178.008 C 148.775 177.799,149.207 177.067,149.344 176.382 C 149.481 175.696,149.955 174.675,150.396 174.114 C 150.838 173.552,151.200 172.920,151.200 172.709 C 151.200 172.499,151.560 171.869,152.000 171.309 C 152.440 170.750,152.800 169.816,152.800 169.235 C 152.800 168.654,153.160 167.870,153.600 167.493 C 154.040 167.116,154.400 166.532,154.400 166.195 C 154.400 165.858,154.850 165.378,155.400 165.127 C 155.950 164.877,156.400 164.430,156.400 164.136 C 156.400 163.841,156.674 163.600,157.009 163.600 C 157.343 163.600,157.822 163.150,158.073 162.600 C 158.323 162.050,158.757 161.600,159.037 161.600 C 159.317 161.600,159.660 161.240,159.800 160.800 C 159.940 160.360,160.204 160.000,160.387 160.000 C 160.836 160.000,163.600 157.213,163.600 156.760 C 163.600 156.562,163.841 156.400,164.136 156.400 C 164.430 156.400,164.877 155.950,165.127 155.400 C 165.378 154.850,165.858 154.400,166.195 154.400 C 166.532 154.400,167.116 154.040,167.493 153.600 C 167.870 153.160,168.654 152.800,169.235 152.800 C 169.816 152.800,170.721 152.471,171.246 152.068 C 172.353 151.219,177.265 148.800,177.883 148.800 C 178.113 148.800,178.514 148.544,178.774 148.231 C 179.034 147.918,179.958 147.542,180.828 147.395 C 181.778 147.235,182.574 146.823,182.819 146.364 C 183.148 145.750,183.677 145.599,185.514 145.595 C 188.428 145.588,189.518 145.288,189.794 144.420 C 190.134 143.347,210.010 143.351,210.290 144.424 M346.000 152.748 C 346.000 153.368,345.579 153.544,343.556 153.773 C 341.609 153.994,341.071 154.207,340.909 154.825 C 340.748 155.441,340.352 155.600,338.980 155.600 C 337.605 155.600,337.202 155.763,337.000 156.400 C 336.812 156.991,336.395 157.200,335.402 157.200 C 334.123 157.200,332.800 158.028,332.800 158.829 C 332.800 159.033,331.910 159.200,330.823 159.200 C 329.283 159.200,328.718 159.381,328.271 160.020 C 327.955 160.471,327.180 160.901,326.548 160.975 C 325.917 161.048,325.277 161.129,325.127 161.154 C 324.977 161.179,324.740 161.560,324.600 162.000 C 324.404 162.618,323.995 162.800,322.800 162.800 C 321.605 162.800,321.196 162.982,321.000 163.600 C 320.811 164.197,320.395 164.400,319.364 164.400 C 318.279 164.400,317.885 164.614,317.527 165.400 C 317.156 166.214,316.786 166.400,315.536 166.400 C 314.267 166.400,314.000 166.539,314.000 167.200 C 314.000 167.911,313.733 168.000,311.609 168.000 C 309.500 168.000,309.141 168.118,308.563 169.000 C 308.178 169.588,307.528 170.000,306.987 170.000 C 305.649 170.000,304.800 170.405,304.800 171.043 C 304.800 171.428,304.296 171.600,303.163 171.600 C 301.862 171.600,301.482 171.764,301.316 172.400 C 301.131 173.108,300.029 173.462,298.691 173.244 C 298.521 173.217,298.211 173.645,298.001 174.197 C 297.681 175.038,297.360 175.200,296.010 175.200 C 294.667 175.200,294.400 175.333,294.400 176.000 C 294.400 176.681,294.133 176.800,292.600 176.800 L 290.800 176.800 290.800 183.637 C 290.800 190.138,290.839 190.485,291.600 190.684 C 292.370 190.886,292.400 191.230,292.400 200.000 C 292.400 208.770,292.370 209.114,291.600 209.316 C 290.853 209.511,290.800 209.862,290.800 214.563 C 290.800 217.654,290.645 219.600,290.400 219.600 C 290.180 219.600,289.885 219.585,289.745 219.566 C 289.211 219.494,288.919 220.528,288.853 222.725 C 288.805 224.296,288.583 225.150,288.135 225.486 C 287.733 225.787,287.415 226.777,287.300 228.086 C 287.198 229.249,286.871 230.395,286.573 230.633 C 285.843 231.216,285.200 232.992,285.200 234.426 C 285.200 235.072,284.840 235.960,284.400 236.400 C 283.837 236.963,283.600 237.733,283.600 239.000 C 283.600 240.533,283.481 240.800,282.800 240.800 C 282.018 240.800,281.938 241.014,281.825 243.400 C 281.801 243.908,281.462 244.247,280.894 244.328 C 280.249 244.420,280.000 244.726,280.000 245.428 C 280.000 246.124,279.779 246.400,279.223 246.400 C 278.595 246.400,278.422 246.726,278.323 248.100 C 278.221 249.513,278.048 249.822,277.300 249.928 C 276.744 250.007,276.400 250.333,276.400 250.781 C 276.400 251.180,276.053 251.597,275.629 251.708 C 275.098 251.847,274.817 252.329,274.729 253.255 C 274.639 254.192,274.327 254.720,273.700 254.995 C 273.205 255.212,272.800 255.686,272.800 256.048 C 272.800 256.410,272.440 256.801,272.000 256.916 C 271.521 257.041,271.200 257.462,271.200 257.963 C 271.200 258.533,270.945 258.800,270.400 258.800 C 269.890 258.800,269.600 259.067,269.600 259.536 C 269.600 259.940,269.150 260.477,268.600 260.727 C 268.050 260.978,267.600 261.457,267.600 261.791 C 267.600 262.126,267.313 262.400,266.963 262.400 C 266.612 262.400,266.235 262.743,266.126 263.163 C 266.016 263.583,265.569 264.019,265.133 264.133 C 264.697 264.247,264.243 264.714,264.124 265.170 C 264.004 265.627,263.641 266.000,263.316 266.000 C 262.991 266.000,262.631 266.360,262.516 266.800 C 262.401 267.240,262.078 267.600,261.799 267.600 C 261.520 267.600,260.997 268.050,260.637 268.600 C 260.276 269.150,259.716 269.600,259.391 269.600 C 259.066 269.600,258.800 269.960,258.800 270.400 C 258.800 270.945,258.533 271.200,257.963 271.200 C 257.475 271.200,257.042 271.519,256.926 271.963 C 256.816 272.383,256.383 272.816,255.963 272.926 C 255.519 273.042,255.200 273.475,255.200 273.963 C 255.200 274.676,254.958 274.800,253.563 274.800 C 252.262 274.800,251.882 274.964,251.716 275.600 C 251.600 276.043,251.170 276.400,250.753 276.400 C 250.216 276.400,250.000 276.687,250.000 277.400 C 250.000 278.319,249.853 278.400,248.200 278.400 C 246.667 278.400,246.400 278.519,246.400 279.200 C 246.400 279.904,246.081 280.069,244.900 279.976 C 244.735 279.963,244.502 280.368,244.382 280.875 C 244.262 281.383,243.902 281.816,243.582 281.838 C 243.262 281.860,242.505 281.906,241.900 281.939 C 241.087 281.984,240.800 282.209,240.800 282.800 C 240.800 283.503,240.533 283.600,238.603 283.600 C 236.840 283.600,236.308 283.758,235.907 284.400 C 235.600 284.892,234.974 285.200,234.284 285.200 C 233.060 285.200,230.800 286.213,230.800 286.762 C 230.800 286.950,229.700 287.183,228.356 287.281 C 226.615 287.407,225.803 287.651,225.536 288.129 C 225.257 288.627,224.607 288.800,223.013 288.800 C 220.351 288.800,219.600 289.073,219.600 290.043 C 219.600 290.746,219.238 290.800,214.563 290.800 C 209.862 290.800,209.511 290.853,209.316 291.600 C 209.044 292.641,190.800 292.881,190.800 291.843 C 190.800 290.968,189.860 290.800,184.967 290.800 C 181.223 290.800,180.400 290.694,180.400 290.214 C 180.400 289.248,179.014 288.800,176.026 288.800 C 173.467 288.800,173.200 288.725,173.200 288.000 C 173.200 287.282,172.933 287.200,170.600 287.200 C 168.320 287.200,168.000 287.107,168.000 286.447 C 168.000 285.649,166.984 285.215,165.100 285.205 C 164.433 285.202,164.000 284.982,164.000 284.647 C 164.000 283.995,162.789 283.613,160.700 283.605 C 159.468 283.601,159.200 283.457,159.200 282.800 C 159.200 282.209,158.913 281.984,158.100 281.939 C 157.495 281.906,156.750 281.860,156.445 281.837 C 156.140 281.814,155.741 281.392,155.558 280.898 C 155.372 280.395,154.888 280.000,154.460 280.000 C 154.030 280.000,153.601 279.649,153.484 279.200 C 153.325 278.593,152.938 278.400,151.881 278.400 C 150.727 278.400,150.443 278.227,150.236 277.400 C 150.080 276.781,149.701 276.400,149.239 276.400 C 148.829 276.400,148.399 276.040,148.284 275.600 C 148.118 274.964,147.738 274.800,146.437 274.800 C 145.042 274.800,144.800 274.676,144.800 273.963 C 144.800 273.475,144.481 273.042,144.037 272.926 C 143.617 272.816,143.184 272.383,143.074 271.963 C 142.958 271.519,142.525 271.200,142.037 271.200 C 141.467 271.200,141.200 270.945,141.200 270.400 C 141.200 269.855,140.933 269.600,140.363 269.600 C 139.866 269.600,139.441 269.280,139.319 268.813 C 139.206 268.381,138.773 267.918,138.357 267.786 C 137.941 267.654,137.600 267.284,137.600 266.963 C 137.600 266.643,137.150 266.209,136.600 266.000 C 136.050 265.791,135.600 265.345,135.600 265.010 C 135.600 264.674,135.326 264.400,134.990 264.400 C 134.655 264.400,134.209 263.950,134.000 263.400 C 133.791 262.850,133.357 262.400,133.037 262.400 C 132.716 262.400,132.340 262.040,132.200 261.600 C 132.060 261.160,131.598 260.800,131.173 260.800 C 130.615 260.800,130.400 260.522,130.400 259.800 C 130.400 259.067,130.187 258.800,129.600 258.800 C 129.076 258.800,128.800 258.533,128.800 258.027 C 128.800 257.602,128.459 257.146,128.043 257.014 C 127.627 256.882,127.194 256.419,127.081 255.987 C 126.962 255.531,126.534 255.200,126.065 255.200 C 125.530 255.200,125.212 254.895,125.128 254.300 C 125.011 253.481,124.784 253.400,122.600 253.400 C 120.416 253.400,120.189 253.481,120.072 254.300 C 119.962 255.079,119.705 255.200,118.172 255.200 C 116.732 255.200,116.400 255.335,116.400 255.920 C 116.400 257.711,118.619 258.127,121.096 256.800 C 123.043 255.756,123.674 255.791,124.725 257.000 C 125.203 257.550,125.772 258.000,125.990 258.000 C 126.207 258.000,126.504 258.495,126.650 259.100 C 126.905 260.158,127.212 260.600,129.030 262.522 C 129.486 263.005,129.976 263.715,130.117 264.100 C 130.259 264.485,130.651 264.800,130.987 264.800 C 131.324 264.800,131.600 265.017,131.600 265.282 C 131.600 265.839,136.252 270.400,136.821 270.400 C 137.029 270.400,137.200 270.670,137.200 271.000 C 137.200 271.330,137.490 271.600,137.844 271.600 C 138.868 271.600,142.106 273.902,143.200 275.407 C 143.750 276.164,144.515 276.889,144.900 277.019 C 145.286 277.148,145.787 277.602,146.014 278.027 C 146.242 278.452,146.621 278.800,146.856 278.800 C 147.092 278.800,147.819 279.250,148.473 279.800 C 149.127 280.350,149.890 280.800,150.169 280.800 C 150.448 280.800,151.002 281.160,151.400 281.600 C 151.798 282.040,152.629 282.400,153.246 282.400 C 153.864 282.400,154.691 282.736,155.084 283.147 C 155.478 283.558,156.475 284.016,157.300 284.165 C 158.157 284.320,158.800 284.667,158.800 284.975 C 158.800 285.567,159.650 286.000,160.810 286.000 C 161.220 286.000,161.790 286.333,162.077 286.739 C 162.365 287.146,163.310 287.610,164.179 287.772 C 165.047 287.934,166.196 288.411,166.733 288.833 C 167.269 289.255,168.286 289.600,168.992 289.600 C 169.750 289.600,170.561 289.914,170.970 290.367 C 171.394 290.835,172.469 291.238,173.732 291.401 C 174.869 291.548,176.520 291.995,177.400 292.394 C 178.280 292.794,180.263 293.235,181.807 293.375 C 183.350 293.515,185.330 293.885,186.207 294.197 C 188.515 295.020,211.942 295.057,213.520 294.242 C 214.114 293.934,216.310 293.475,218.400 293.222 C 220.490 292.968,222.560 292.527,223.000 292.243 C 223.440 291.958,224.773 291.613,225.962 291.474 C 227.311 291.318,228.449 290.918,228.988 290.412 C 229.519 289.913,230.395 289.600,231.264 289.600 C 232.142 289.600,232.935 289.313,233.362 288.842 C 233.740 288.425,234.847 287.964,235.824 287.817 C 236.903 287.656,237.600 287.342,237.600 287.018 C 237.600 286.428,238.456 286.000,239.635 286.000 C 240.059 286.000,240.797 285.550,241.275 285.000 C 241.876 284.309,242.554 284.000,243.472 284.000 C 244.340 284.000,244.800 283.807,244.800 283.443 C 244.800 282.834,245.639 282.400,246.815 282.400 C 247.550 282.400,249.551 281.253,251.663 279.621 C 252.248 279.170,252.917 278.800,253.149 278.800 C 253.382 278.800,253.765 278.440,254.000 278.000 C 254.235 277.560,254.623 277.200,254.860 277.200 C 255.318 277.200,258.000 274.437,258.000 273.965 C 258.000 273.812,258.494 273.563,259.097 273.411 C 259.700 273.260,260.465 272.884,260.797 272.576 C 261.129 272.267,261.940 271.571,262.600 271.028 C 265.581 268.575,266.082 268.131,267.109 267.035 C 267.709 266.395,268.695 265.354,269.300 264.722 C 269.905 264.090,270.400 263.399,270.400 263.186 C 270.400 262.974,270.670 262.800,271.000 262.800 C 271.330 262.800,271.600 262.469,271.600 262.063 C 271.600 261.251,272.445 260.146,275.300 257.224 C 276.345 256.154,277.200 255.088,277.200 254.854 C 277.200 254.620,277.560 254.235,278.000 254.000 C 278.440 253.765,278.802 253.353,278.805 253.086 C 278.808 252.819,279.169 252.150,279.608 251.600 C 281.204 249.598,282.400 247.547,282.400 246.815 C 282.400 245.639,282.834 244.800,283.443 244.800 C 283.807 244.800,284.000 244.340,284.000 243.472 C 284.000 242.554,284.309 241.876,285.000 241.275 C 285.550 240.797,286.000 240.059,286.000 239.635 C 286.000 238.473,286.425 237.600,286.992 237.600 C 287.276 237.600,287.614 236.874,287.762 235.946 C 287.908 235.037,288.381 233.842,288.813 233.292 C 289.246 232.742,289.600 231.743,289.600 231.072 C 289.600 230.401,289.950 229.479,290.378 229.024 C 290.856 228.514,291.251 227.351,291.403 225.998 C 291.539 224.789,291.887 223.435,292.176 222.990 C 292.465 222.544,292.911 220.600,293.168 218.669 C 293.425 216.739,293.830 214.674,294.068 214.080 C 294.658 212.609,294.980 192.966,294.472 189.400 C 294.253 187.860,293.853 185.402,293.584 183.938 C 292.879 180.106,294.437 177.600,297.523 177.600 C 297.762 177.600,298.804 177.150,299.838 176.600 C 300.873 176.050,301.979 175.600,302.296 175.600 C 302.614 175.600,303.331 175.240,303.891 174.800 C 304.450 174.360,305.237 174.000,305.638 174.000 C 306.040 174.000,306.691 173.661,307.084 173.247 C 307.478 172.832,308.386 172.368,309.103 172.214 C 309.820 172.061,310.591 171.590,310.817 171.167 C 311.104 170.632,311.658 170.400,312.652 170.400 C 313.731 170.400,314.125 170.210,314.281 169.613 C 314.520 168.696,315.659 168.238,316.800 168.600 C 317.411 168.794,317.691 168.612,317.990 167.827 C 318.318 166.963,318.632 166.800,319.962 166.800 C 320.831 166.800,321.808 166.535,322.132 166.210 C 322.457 165.886,323.507 165.445,324.466 165.230 C 326.607 164.750,329.872 163.340,331.154 162.343 C 331.679 161.934,332.437 161.600,332.838 161.600 C 333.240 161.600,333.891 161.264,334.284 160.853 C 334.678 160.442,335.684 159.982,336.521 159.831 C 337.358 159.680,338.135 159.314,338.248 159.019 C 338.362 158.723,339.252 158.280,340.227 158.035 C 341.328 157.758,342.000 157.363,342.000 156.994 C 342.000 156.623,342.385 156.400,343.026 156.400 C 344.458 156.400,345.600 155.707,345.600 154.840 C 345.600 154.184,345.779 154.148,347.300 154.493 C 348.235 154.705,349.495 154.906,350.101 154.939 L 351.201 155.000 351.101 260.400 C 351.004 362.117,350.975 365.800,350.270 365.803 C 349.869 365.805,349.346 366.165,349.108 366.603 C 348.307 368.079,346.145 369.905,344.868 370.185 C 344.171 370.338,343.600 370.634,343.600 370.842 C 343.600 371.050,343.116 371.404,342.524 371.629 C 341.933 371.854,341.203 372.389,340.902 372.819 C 340.601 373.248,339.919 373.600,339.387 373.600 C 338.799 373.600,338.164 373.988,337.772 374.586 C 337.279 375.339,336.803 375.561,335.766 375.522 C 335.018 375.494,334.090 375.734,333.703 376.056 C 333.316 376.377,332.104 376.867,331.010 377.143 C 329.915 377.419,328.925 377.796,328.810 377.981 C 328.694 378.166,327.856 378.517,326.947 378.761 C 326.037 379.006,325.078 379.466,324.814 379.783 C 324.550 380.101,323.534 380.481,322.556 380.627 C 321.418 380.798,320.633 381.165,320.375 381.647 C 320.083 382.192,319.529 382.400,318.367 382.400 C 317.169 382.400,316.527 382.653,315.835 383.400 C 315.120 384.171,314.507 384.401,313.154 384.406 C 311.215 384.413,310.600 384.700,310.600 385.600 C 310.600 386.073,310.037 386.200,307.934 386.200 C 305.093 386.200,304.804 386.310,304.627 387.463 C 304.541 388.017,304.226 388.171,303.357 388.082 C 300.345 387.776,298.404 387.912,296.842 388.536 C 295.906 388.911,293.667 389.367,291.865 389.549 C 290.064 389.732,288.052 390.155,287.395 390.490 C 286.738 390.825,284.940 391.223,283.400 391.374 C 281.860 391.525,279.984 391.931,279.230 392.276 C 278.477 392.621,276.192 393.030,274.153 393.184 C 271.916 393.353,270.175 393.690,269.763 394.032 C 269.292 394.424,267.554 394.667,264.156 394.816 C 259.881 395.003,259.111 395.142,258.316 395.874 C 257.480 396.644,256.834 396.731,250.897 396.874 C 244.709 397.023,244.364 397.074,243.768 397.924 C 243.147 398.811,243.072 398.817,234.471 398.669 C 224.350 398.496,219.138 398.774,218.898 399.500 C 218.768 399.894,221.919 400.000,233.767 400.000 C 243.522 400.000,248.800 399.860,248.800 399.600 C 248.800 399.353,250.915 399.200,254.344 399.200 C 261.442 399.200,263.506 398.927,263.817 397.947 C 264.031 397.273,264.518 397.200,268.804 397.200 C 273.071 397.200,273.611 397.120,274.105 396.415 C 274.581 395.734,275.211 395.614,278.827 395.515 C 282.717 395.408,283.027 395.339,283.395 394.500 C 283.760 393.667,284.046 393.600,287.233 393.600 C 290.168 393.600,290.783 393.482,291.400 392.800 C 291.990 392.148,292.632 392.000,294.862 392.000 C 297.333 392.000,297.600 391.922,297.600 391.200 C 297.600 390.349,297.832 390.290,300.809 390.389 C 302.998 390.462,304.800 389.840,304.800 389.010 C 304.800 388.526,305.338 388.400,307.409 388.400 C 309.740 388.400,310.062 388.302,310.435 387.483 C 310.778 386.730,311.098 386.595,312.232 386.728 C 314.740 387.021,317.200 386.450,317.200 385.575 C 317.200 384.876,319.953 384.414,322.100 384.753 C 322.265 384.779,322.400 384.440,322.400 384.000 C 322.400 383.358,322.667 383.200,323.750 383.200 C 326.075 383.200,327.564 382.743,327.815 381.952 C 327.997 381.380,328.439 381.200,329.664 381.200 C 330.938 381.200,331.319 381.033,331.484 380.400 C 331.648 379.774,332.030 379.600,333.239 379.600 C 334.554 379.600,334.822 379.451,335.036 378.600 C 335.250 377.748,335.517 377.600,336.843 377.600 C 338.133 377.600,338.400 377.463,338.400 376.800 C 338.400 376.130,338.667 376.000,340.037 376.000 C 341.310 376.000,341.719 375.831,341.874 375.240 C 342.016 374.697,342.575 374.405,343.836 374.215 C 345.224 374.007,345.600 373.786,345.600 373.175 C 345.600 372.615,345.877 372.400,346.600 372.400 C 347.150 372.400,347.967 372.033,348.416 371.584 C 348.865 371.135,349.675 370.600,350.216 370.394 C 351.079 370.066,351.200 369.776,351.200 368.034 C 351.200 366.941,351.380 365.936,351.600 365.800 C 352.132 365.471,352.156 155.877,351.624 154.895 C 351.417 154.513,351.144 153.705,351.017 153.100 C 350.715 151.671,346.000 151.340,346.000 152.748 M48.862 246.400 L 48.956 248.000 51.178 247.994 C 53.593 247.987,54.139 247.764,54.315 246.711 C 54.394 246.238,54.081 245.948,53.315 245.784 C 52.702 245.652,51.787 245.377,51.281 245.172 C 49.317 244.376,48.759 244.659,48.862 246.400 M112.319 257.072 C 111.944 257.171,111.527 257.600,111.392 258.026 C 111.197 258.640,110.775 258.800,109.349 258.800 C 108.361 258.800,107.642 258.944,107.750 259.119 C 108.173 259.804,107.315 260.314,105.426 260.500 C 104.056 260.635,103.242 260.955,102.762 261.547 C 102.284 262.138,101.620 262.400,100.598 262.400 C 99.462 262.400,99.077 262.583,98.916 263.200 C 98.751 263.831,98.370 264.000,97.116 264.000 C 95.874 264.000,95.480 264.171,95.321 264.782 C 95.173 265.348,94.635 265.636,93.373 265.825 C 92.413 265.969,91.644 266.202,91.662 266.343 C 91.791 267.352,91.456 267.600,89.963 267.600 C 88.662 267.600,88.282 267.764,88.116 268.400 C 87.969 268.960,87.570 269.200,86.786 269.200 C 85.144 269.200,84.400 269.588,84.400 270.443 C 84.400 271.103,84.087 271.200,81.963 271.200 C 79.883 271.200,79.495 271.315,79.321 271.979 C 79.168 272.565,78.707 272.788,77.459 272.879 C 76.088 272.979,75.778 273.156,75.672 273.900 C 75.562 274.679,75.305 274.800,73.772 274.800 C 72.267 274.800,72.000 274.920,72.000 275.600 C 72.000 276.283,71.733 276.400,70.182 276.400 C 68.776 276.400,68.137 276.627,67.364 277.400 C 66.814 277.950,65.920 278.400,65.378 278.400 C 64.836 278.400,64.084 278.760,63.707 279.200 C 63.330 279.640,62.548 280.000,61.970 280.000 C 61.391 280.000,60.431 280.450,59.838 281.000 C 59.178 281.611,58.286 282.000,57.542 282.000 C 56.662 282.000,56.267 282.221,56.116 282.800 C 55.952 283.425,55.570 283.600,54.367 283.600 C 53.238 283.600,52.714 283.813,52.400 284.400 C 52.130 284.904,51.562 285.200,50.866 285.200 C 49.055 285.200,47.837 287.655,49.358 288.239 C 50.497 288.676,53.103 287.639,53.352 286.650 C 53.551 285.857,53.827 285.715,55.094 285.754 C 56.390 285.794,56.619 285.668,56.734 284.853 C 56.854 284.007,57.019 283.931,58.290 284.137 C 59.881 284.395,61.200 283.873,61.200 282.986 C 61.200 282.569,61.662 282.400,62.801 282.400 C 63.682 282.400,65.075 282.040,65.896 281.600 C 66.716 281.160,67.616 280.800,67.894 280.800 C 68.172 280.800,69.255 280.363,70.300 279.829 C 73.624 278.132,76.597 276.800,77.063 276.800 C 77.311 276.800,77.614 276.540,77.736 276.222 C 77.858 275.904,78.602 275.523,79.390 275.376 C 80.177 275.228,80.990 274.792,81.196 274.407 C 81.409 274.009,82.257 273.597,83.159 273.453 C 84.258 273.277,84.824 272.953,85.000 272.400 C 85.198 271.778,85.606 271.600,86.837 271.600 C 88.168 271.600,88.482 271.437,88.810 270.573 C 89.110 269.783,89.387 269.606,90.009 269.803 C 91.182 270.175,93.200 269.636,93.200 268.951 C 93.200 268.629,93.425 268.409,93.700 268.463 C 94.630 268.644,97.117 267.982,97.574 267.431 C 97.824 267.130,98.688 266.760,99.493 266.609 C 100.298 266.458,101.396 265.989,101.933 265.567 C 102.469 265.145,103.244 264.800,103.654 264.800 C 104.064 264.800,104.766 264.434,105.213 263.988 C 105.659 263.541,106.566 263.067,107.227 262.935 C 107.888 262.802,108.608 262.358,108.828 261.947 C 109.071 261.494,109.664 261.200,110.334 261.200 C 111.592 261.200,112.400 260.558,112.400 259.558 C 112.400 258.993,112.675 258.913,114.000 259.091 C 115.572 259.302,115.600 259.283,115.600 258.053 C 115.600 256.765,114.610 256.469,112.319 257.072 M48.893 291.600 C 48.893 292.370,48.975 292.685,49.076 292.300 C 49.176 291.915,49.176 291.285,49.076 290.900 C 48.975 290.515,48.893 290.830,48.893 291.600 M48.800 367.823 C 48.800 369.967,49.575 370.800,51.572 370.800 C 51.976 370.800,52.401 371.160,52.516 371.600 C 52.636 372.060,53.062 372.400,53.516 372.400 C 53.955 372.400,54.395 372.736,54.505 373.157 C 54.640 373.674,55.212 373.999,56.312 374.185 C 57.426 374.373,57.984 374.695,58.123 375.229 C 58.280 375.827,58.681 376.000,59.916 376.000 C 61.170 376.000,61.551 376.169,61.716 376.800 C 61.873 377.400,62.262 377.600,63.268 377.600 C 64.276 377.600,64.709 377.824,65.005 378.500 C 65.292 379.154,65.798 379.433,66.859 379.522 C 67.907 379.609,68.375 379.863,68.522 380.422 C 68.683 381.041,69.081 381.201,70.463 381.207 C 71.787 381.212,72.424 381.450,73.142 382.207 C 73.867 382.971,74.490 383.200,75.842 383.200 C 77.333 383.200,77.600 383.321,77.600 384.000 C 77.600 384.718,77.867 384.800,80.200 384.800 C 82.476 384.800,82.800 384.894,82.800 385.550 C 82.800 387.034,88.954 387.406,89.416 385.950 C 89.765 384.850,89.062 384.414,86.927 384.406 C 85.644 384.401,85.198 384.225,85.015 383.648 C 84.781 382.910,83.290 382.400,81.364 382.400 C 80.849 382.400,80.248 382.064,80.029 381.653 C 79.760 381.151,78.988 380.822,77.671 380.647 C 76.484 380.490,75.430 380.075,74.994 379.594 C 74.599 379.157,73.953 378.800,73.559 378.800 C 73.165 378.800,71.996 378.350,70.962 377.800 C 69.927 377.250,68.703 376.799,68.240 376.797 C 67.778 376.796,66.879 376.451,66.243 376.032 C 65.448 375.508,64.676 375.335,63.777 375.481 C 62.631 375.667,62.451 375.576,62.334 374.747 C 62.224 373.971,61.929 373.778,60.700 373.676 C 59.783 373.600,59.200 373.345,59.200 373.021 C 59.200 372.730,58.570 372.192,57.800 371.827 C 57.030 371.461,56.400 371.005,56.400 370.813 C 56.400 370.621,55.829 370.338,55.132 370.185 C 53.699 369.870,51.446 367.851,51.028 366.507 C 50.418 364.543,48.800 365.499,48.800 367.823 M91.300 386.276 C 88.336 386.674,89.558 388.456,92.700 388.318 C 95.149 388.211,95.387 388.126,95.262 387.400 C 95.065 386.257,93.898 385.926,91.300 386.276 M98.208 388.034 C 97.332 388.182,96.388 388.217,96.111 388.111 C 95.433 387.850,94.977 389.137,95.546 389.706 C 95.916 390.076,97.951 390.295,101.900 390.388 C 102.175 390.395,102.400 390.760,102.400 391.200 C 102.400 391.922,102.667 392.000,105.138 392.000 C 107.368 392.000,108.010 392.148,108.600 392.800 C 109.220 393.485,109.832 393.600,112.862 393.600 C 114.808 393.600,116.400 393.767,116.400 393.971 C 116.400 395.187,117.722 395.600,121.609 395.600 C 124.956 395.600,125.620 395.707,125.951 396.300 C 126.285 396.897,127.085 397.020,131.396 397.133 C 135.278 397.235,136.501 397.397,136.666 397.829 C 137.025 398.764,139.523 399.160,145.200 399.181 C 148.426 399.192,150.654 399.361,150.733 399.600 C 150.959 400.276,181.200 400.136,181.200 399.459 C 181.200 398.738,171.270 398.261,164.108 398.639 C 158.611 398.930,156.800 398.731,156.800 397.839 C 156.800 396.984,155.455 396.811,148.754 396.805 C 142.886 396.800,142.439 396.745,141.364 395.900 C 140.368 395.116,139.614 394.974,135.495 394.800 C 132.113 394.657,130.673 394.445,130.433 394.055 C 130.206 393.686,128.724 393.412,125.832 393.202 C 122.982 392.996,121.340 392.695,120.883 392.294 C 120.507 391.964,118.940 391.565,117.400 391.407 C 115.860 391.250,113.880 390.859,113.000 390.540 C 111.218 389.893,110.549 389.769,106.804 389.397 C 105.376 389.255,104.007 388.972,103.761 388.768 C 103.025 388.157,99.909 387.745,98.208 388.034 " stroke="none" fill="#df6767" fill-rule="evenodd"></path><path id="path1" d="M181.305 0.593 C 180.902 1.051,178.602 1.161,168.906 1.188 L 157.002 1.221 156.085 2.211 C 155.089 3.285,155.329 3.257,146.118 3.353 C 142.129 3.395,141.572 3.488,141.051 4.200 C 140.538 4.901,139.913 5.017,135.982 5.137 C 132.448 5.245,131.234 5.435,130.249 6.035 C 129.314 6.605,128.244 6.797,125.994 6.799 C 123.759 6.800,122.607 7.004,121.502 7.596 C 120.640 8.059,118.796 8.502,117.108 8.653 C 115.509 8.795,113.570 9.222,112.800 9.600 C 112.025 9.981,109.930 10.396,108.105 10.531 C 106.220 10.670,104.252 11.067,103.505 11.458 C 102.158 12.165,98.678 12.401,96.700 11.920 C 95.736 11.686,95.600 11.769,95.600 12.595 C 95.600 13.735,94.023 14.209,91.597 13.800 C 89.579 13.458,89.370 13.510,89.536 14.305 C 89.739 15.284,88.517 15.969,87.003 15.723 C 85.918 15.547,85.509 15.699,84.765 16.554 C 84.023 17.408,83.506 17.600,81.955 17.600 C 80.441 17.600,80.005 17.754,79.814 18.357 C 79.577 19.102,78.507 19.584,77.063 19.595 C 76.658 19.598,75.869 19.960,75.309 20.400 C 74.750 20.840,74.001 21.206,73.646 21.213 C 73.291 21.219,72.100 21.668,71.000 22.209 C 69.900 22.750,68.514 23.194,67.920 23.196 C 67.314 23.198,66.669 23.504,66.451 23.894 C 66.173 24.392,65.594 24.576,64.402 24.545 C 62.983 24.507,62.687 24.645,62.364 25.494 C 62.044 26.336,61.780 26.462,60.616 26.326 C 59.465 26.192,59.209 26.308,59.022 27.056 C 58.899 27.546,58.394 28.071,57.899 28.223 C 57.405 28.375,56.678 28.837,56.284 29.250 C 55.891 29.662,55.109 30.000,54.547 30.000 C 53.867 30.000,53.456 30.263,53.319 30.787 C 53.206 31.219,52.758 31.686,52.323 31.824 C 51.888 31.963,51.350 32.598,51.127 33.238 C 50.831 34.086,50.462 34.400,49.761 34.400 L 48.800 34.400 48.800 139.600 C 48.800 237.829,48.845 244.800,49.472 244.800 C 50.105 244.800,51.967 245.318,53.837 246.014 C 54.551 246.280,54.650 246.195,54.506 245.442 C 54.336 244.551,55.633 243.600,57.019 243.600 C 57.338 243.600,57.960 243.240,58.400 242.800 C 58.840 242.360,59.733 242.000,60.386 242.000 C 61.138 242.000,61.719 241.724,61.975 241.246 C 62.197 240.831,62.864 240.370,63.458 240.221 C 64.051 240.072,64.980 239.602,65.522 239.175 C 66.064 238.749,66.906 238.400,67.392 238.400 C 67.878 238.400,68.602 238.040,69.000 237.600 C 69.398 237.160,69.921 236.798,70.162 236.796 C 70.403 236.794,71.500 236.350,72.600 235.809 C 73.700 235.268,75.145 234.819,75.811 234.813 C 76.529 234.805,77.311 234.463,77.732 233.971 C 78.209 233.414,78.860 233.165,79.721 233.212 C 81.704 233.319,81.892 233.255,82.116 232.400 C 82.282 231.764,82.662 231.600,83.963 231.600 C 84.863 231.600,85.600 231.433,85.600 231.229 C 85.600 230.472,86.893 229.600,88.014 229.600 C 88.739 229.600,89.323 229.318,89.575 228.847 C 89.797 228.432,90.596 227.977,91.351 227.836 C 92.105 227.694,92.811 227.347,92.920 227.065 C 93.028 226.783,93.837 226.336,94.717 226.072 C 95.597 225.808,96.420 225.324,96.546 224.996 C 96.673 224.666,97.272 224.399,97.887 224.398 C 98.499 224.397,99.720 223.952,100.600 223.410 C 101.480 222.868,102.550 222.419,102.978 222.412 C 103.407 222.406,104.459 221.913,105.318 221.318 L 106.879 220.237 106.599 217.218 C 106.446 215.558,106.116 213.951,105.866 213.646 C 105.561 213.274,105.366 209.541,105.269 202.246 C 105.134 192.069,105.304 189.221,106.335 184.400 C 106.547 183.410,106.840 181.520,106.986 180.200 C 107.133 178.880,107.508 177.406,107.820 176.924 C 108.132 176.442,108.507 175.032,108.653 173.790 C 108.836 172.228,109.146 171.391,109.659 171.070 C 110.167 170.753,110.400 170.134,110.400 169.104 C 110.400 168.101,110.685 167.315,111.255 166.745 C 111.767 166.233,112.190 165.188,112.307 164.145 C 112.432 163.040,112.703 162.400,113.046 162.400 C 113.353 162.400,113.781 161.636,114.032 160.637 C 114.326 159.473,114.736 158.806,115.238 158.674 C 115.807 158.525,116.000 158.115,116.000 157.052 C 116.000 156.038,116.230 155.505,116.800 155.200 C 117.311 154.927,117.600 154.362,117.600 153.640 C 117.600 153.017,117.960 152.050,118.400 151.491 C 118.840 150.931,119.200 150.286,119.200 150.058 C 119.200 149.829,119.650 149.156,120.200 148.562 C 120.750 147.969,121.200 147.306,121.200 147.089 C 121.200 146.873,122.460 145.445,124.000 143.918 C 125.540 142.390,126.800 140.800,126.800 140.384 C 126.800 139.968,127.160 139.435,127.600 139.200 C 128.040 138.965,128.400 138.515,128.400 138.200 C 128.400 137.885,128.760 137.435,129.200 137.200 C 129.640 136.965,130.000 136.620,130.000 136.435 C 130.000 135.974,134.035 131.600,134.460 131.600 C 134.648 131.600,135.500 130.880,136.354 130.000 C 137.208 129.120,138.101 128.400,138.339 128.400 C 138.577 128.400,138.952 128.064,139.172 127.653 C 139.392 127.242,140.122 126.796,140.795 126.661 C 141.468 126.526,142.136 126.110,142.280 125.736 C 142.423 125.362,143.071 124.594,143.719 124.028 C 144.368 123.463,145.302 122.595,145.795 122.100 C 146.288 121.605,146.887 121.200,147.125 121.200 C 147.364 121.200,148.044 120.750,148.638 120.200 C 149.231 119.650,149.887 119.200,150.095 119.200 C 150.303 119.200,150.931 118.840,151.491 118.400 C 152.050 117.960,153.017 117.600,153.640 117.600 C 154.362 117.600,154.927 117.311,155.200 116.800 C 155.505 116.230,156.038 116.000,157.052 116.000 C 158.121 116.000,158.525 115.808,158.677 115.229 C 158.815 114.699,159.370 114.374,160.444 114.192 C 161.380 114.034,162.175 113.620,162.419 113.164 C 162.716 112.609,163.263 112.400,164.417 112.400 C 165.613 112.400,166.220 112.153,166.875 111.400 C 167.516 110.663,168.142 110.400,169.258 110.400 C 170.362 110.400,170.888 110.184,171.200 109.600 C 171.535 108.973,172.038 108.800,173.520 108.800 C 174.667 108.800,176.018 108.475,176.952 107.975 C 177.899 107.467,179.897 106.992,182.145 106.741 C 184.154 106.517,186.051 106.124,186.360 105.867 C 187.209 105.162,212.847 105.209,213.700 105.917 C 214.046 106.204,215.890 106.535,217.861 106.663 C 220.243 106.818,221.832 107.139,222.721 107.645 C 223.448 108.059,225.038 108.515,226.255 108.658 C 227.777 108.837,228.611 109.149,228.930 109.659 C 229.245 110.164,229.865 110.400,230.876 110.400 C 231.903 110.400,232.690 110.707,233.438 111.400 C 234.194 112.101,234.970 112.400,236.031 112.400 C 237.195 112.400,237.605 112.586,237.800 113.200 C 238.002 113.835,239.175 114.287,239.700 113.932 C 240.033 113.707,241.600 114.929,241.600 115.414 C 241.600 115.816,242.035 116.000,242.986 116.000 C 243.962 116.000,244.498 116.236,244.800 116.800 C 245.073 117.311,245.638 117.600,246.360 117.600 C 246.983 117.600,247.921 117.935,248.446 118.345 C 248.971 118.755,249.781 119.209,250.247 119.355 C 250.713 119.501,251.416 119.976,251.809 120.410 C 252.202 120.845,252.760 121.200,253.048 121.200 C 253.336 121.200,253.765 121.560,254.000 122.000 C 254.235 122.440,254.626 122.800,254.867 122.800 C 255.377 122.800,258.000 125.488,258.000 126.010 C 258.000 126.205,258.630 126.482,259.400 126.626 C 260.170 126.771,260.800 127.110,260.800 127.380 C 260.800 127.651,261.250 128.077,261.800 128.327 C 262.350 128.578,262.800 128.971,262.800 129.201 C 262.800 129.431,263.250 129.791,263.800 130.000 C 264.350 130.209,264.800 130.655,264.800 130.990 C 264.800 131.326,265.041 131.600,265.335 131.600 C 265.837 131.600,269.221 135.055,271.000 137.384 C 271.440 137.960,272.090 138.739,272.444 139.116 C 272.798 139.492,273.206 140.295,273.351 140.900 C 273.496 141.505,273.878 142.000,274.198 142.000 C 274.519 142.000,275.076 142.450,275.437 143.000 C 276.191 144.151,277.416 144.284,278.738 143.358 C 279.742 142.655,282.023 142.459,283.618 142.939 C 284.541 143.217,284.633 143.141,284.618 142.123 C 284.602 141.110,284.747 140.988,286.100 140.876 C 287.062 140.796,287.600 140.550,287.600 140.190 C 287.600 139.515,288.827 138.800,289.986 138.800 C 290.448 138.800,290.925 138.539,291.048 138.219 C 291.170 137.900,291.930 137.424,292.735 137.161 C 293.541 136.899,294.629 136.350,295.154 135.942 C 295.679 135.534,296.506 135.200,296.992 135.200 C 297.478 135.200,298.183 134.861,298.558 134.446 C 298.934 134.031,299.805 133.579,300.494 133.441 C 301.184 133.303,302.060 132.907,302.443 132.561 C 302.825 132.215,303.917 131.833,304.869 131.711 C 305.821 131.589,306.934 131.142,307.342 130.717 C 307.932 130.102,308.400 129.997,309.626 130.204 C 311.045 130.444,311.189 130.382,311.428 129.432 C 311.652 128.539,311.901 128.400,313.281 128.400 C 314.540 128.400,314.919 128.232,315.085 127.597 C 315.233 127.029,315.754 126.721,316.862 126.544 C 317.794 126.395,318.591 125.990,318.829 125.547 C 319.074 125.089,319.664 124.800,320.356 124.800 C 321.004 124.800,321.942 124.375,322.562 123.800 C 323.156 123.250,323.919 122.800,324.258 122.800 C 324.596 122.800,325.331 122.440,325.891 122.000 C 326.450 121.560,327.201 121.200,327.560 121.200 C 327.918 121.200,328.839 120.866,329.606 120.459 C 330.373 120.051,331.720 119.486,332.600 119.202 C 333.480 118.918,334.555 118.442,334.989 118.143 C 335.423 117.844,336.384 117.600,337.125 117.600 C 338.031 117.600,338.706 117.311,339.185 116.719 C 339.731 116.045,340.264 115.859,341.450 115.929 C 342.728 116.005,343.072 115.860,343.401 115.110 C 343.653 114.536,344.169 114.184,344.800 114.157 C 346.608 114.078,346.800 114.006,346.800 113.405 C 346.800 112.666,349.274 111.590,350.335 111.867 C 351.112 112.070,351.122 111.623,351.178 73.088 L 351.235 34.104 350.257 34.291 C 349.505 34.435,349.213 34.270,348.994 33.580 C 348.583 32.285,346.168 30.000,345.209 30.000 C 344.760 30.000,344.084 29.640,343.707 29.200 C 343.330 28.760,342.791 28.400,342.508 28.400 C 342.226 28.400,341.603 27.950,341.125 27.400 C 340.579 26.771,339.833 26.400,339.118 26.400 C 338.288 26.400,337.882 26.143,337.619 25.450 C 337.331 24.692,337.044 24.541,336.198 24.702 C 335.490 24.838,334.743 24.613,333.946 24.024 C 333.291 23.539,332.090 23.036,331.277 22.907 C 329.863 22.682,328.267 22.029,325.178 20.410 C 324.395 20.001,323.085 19.540,322.267 19.386 C 321.433 19.230,320.601 18.776,320.375 18.353 C 320.076 17.795,319.527 17.600,318.258 17.600 C 316.929 17.600,316.349 17.376,315.675 16.600 C 314.964 15.782,314.440 15.600,312.803 15.600 C 310.943 15.600,310.800 15.530,310.800 14.619 C 310.800 13.679,310.718 13.647,308.833 13.871 C 306.364 14.163,304.922 13.814,304.615 12.849 C 304.407 12.190,303.977 12.105,301.089 12.148 C 298.637 12.184,297.472 12.018,296.512 11.494 C 295.771 11.090,293.902 10.690,292.112 10.553 C 290.400 10.422,288.280 9.990,287.400 9.593 C 286.520 9.196,284.493 8.768,282.896 8.642 C 281.216 8.509,279.563 8.132,278.976 7.747 C 278.306 7.309,276.691 6.999,274.241 6.841 C 271.828 6.685,270.270 6.389,269.802 6.000 C 269.289 5.573,267.739 5.342,264.430 5.200 C 260.370 5.025,259.632 4.884,258.621 4.088 C 257.539 3.237,257.132 3.182,252.431 3.263 C 247.001 3.357,244.800 3.049,244.800 2.195 C 244.800 1.265,243.364 1.120,235.263 1.228 C 222.456 1.400,219.339 1.282,218.657 0.600 C 217.787 -0.270,182.071 -0.277,181.305 0.593 M189.794 144.420 C 189.518 145.288,188.428 145.588,185.514 145.595 C 183.677 145.599,183.148 145.750,182.819 146.364 C 182.574 146.823,181.778 147.235,180.828 147.395 C 179.958 147.542,179.034 147.918,178.774 148.231 C 178.514 148.544,178.113 148.800,177.883 148.800 C 177.265 148.800,172.353 151.219,171.246 152.068 C 170.721 152.471,169.816 152.800,169.235 152.800 C 168.654 152.800,167.870 153.160,167.493 153.600 C 167.116 154.040,166.532 154.400,166.195 154.400 C 165.858 154.400,165.378 154.850,165.127 155.400 C 164.877 155.950,164.430 156.400,164.136 156.400 C 163.841 156.400,163.600 156.562,163.600 156.760 C 163.600 157.213,160.836 160.000,160.387 160.000 C 160.204 160.000,159.940 160.360,159.800 160.800 C 159.660 161.240,159.317 161.600,159.037 161.600 C 158.757 161.600,158.323 162.050,158.073 162.600 C 157.822 163.150,157.343 163.600,157.009 163.600 C 156.674 163.600,156.400 163.841,156.400 164.136 C 156.400 164.430,155.950 164.877,155.400 165.127 C 154.850 165.378,154.400 165.858,154.400 166.195 C 154.400 166.532,154.040 167.116,153.600 167.493 C 153.160 167.870,152.800 168.654,152.800 169.235 C 152.800 169.816,152.440 170.750,152.000 171.309 C 151.560 171.869,151.200 172.499,151.200 172.709 C 151.200 172.920,150.838 173.552,150.396 174.114 C 149.955 174.675,149.481 175.696,149.344 176.382 C 149.207 177.067,148.775 177.799,148.386 178.008 C 147.924 178.255,147.580 179.088,147.400 180.400 C 147.211 181.777,146.882 182.542,146.362 182.821 C 145.743 183.151,145.600 183.678,145.600 185.614 C 145.600 187.555,145.432 188.168,144.700 188.900 C 143.823 189.777,143.798 190.045,143.709 199.200 C 143.659 204.370,143.597 209.029,143.570 209.552 C 143.526 210.419,143.959 210.962,144.976 211.319 C 145.183 211.391,145.430 212.659,145.524 214.136 C 145.650 216.126,145.879 216.950,146.409 217.322 C 146.826 217.613,147.241 218.601,147.404 219.687 C 147.558 220.713,148.025 221.860,148.442 222.238 C 148.859 222.615,149.200 223.221,149.200 223.584 C 149.200 223.947,149.650 224.855,150.200 225.600 C 150.750 226.345,151.200 227.261,151.200 227.635 C 151.200 228.009,151.460 228.414,151.778 228.536 C 152.096 228.658,152.480 229.442,152.631 230.279 C 152.782 231.116,153.242 232.122,153.653 232.516 C 154.064 232.909,154.400 233.412,154.400 233.633 C 154.400 233.854,156.830 236.433,159.800 239.364 C 162.770 242.295,165.200 244.882,165.200 245.114 C 165.200 245.347,165.725 245.652,166.367 245.793 C 167.008 245.934,167.633 246.308,167.754 246.624 C 167.876 246.941,168.322 247.200,168.747 247.200 C 169.582 247.200,173.803 249.302,174.831 250.230 C 175.179 250.544,175.797 250.800,176.206 250.800 C 176.614 250.800,177.331 251.159,177.798 251.598 C 178.265 252.037,179.501 252.555,180.544 252.750 C 181.588 252.945,182.658 253.375,182.921 253.706 C 183.217 254.079,184.375 254.389,185.956 254.521 C 188.290 254.716,188.912 255.017,189.310 256.148 C 189.377 256.340,194.184 256.475,199.992 256.449 C 210.529 256.401,210.848 256.362,211.307 255.061 C 211.372 254.874,212.680 254.622,214.213 254.500 C 216.205 254.342,217.138 254.084,217.484 253.594 C 217.751 253.218,218.713 252.810,219.624 252.688 C 220.534 252.565,221.678 252.091,222.165 251.633 C 222.653 251.175,223.432 250.800,223.897 250.800 C 224.362 250.800,225.019 250.523,225.357 250.185 C 225.695 249.847,226.596 249.310,227.359 248.992 C 228.121 248.673,228.850 248.243,228.977 248.037 C 229.105 247.830,229.792 247.537,230.505 247.384 C 231.217 247.232,232.122 246.768,232.516 246.353 C 232.909 245.939,233.584 245.600,234.016 245.600 C 234.447 245.600,234.800 245.412,234.800 245.182 C 234.800 244.952,237.275 242.253,240.300 239.184 C 247.165 232.219,247.022 232.389,247.334 230.830 C 247.476 230.118,247.955 229.075,248.396 228.514 C 248.838 227.952,249.200 227.229,249.200 226.908 C 249.200 226.586,249.536 225.846,249.948 225.262 C 250.359 224.678,250.830 223.750,250.995 223.200 C 251.160 222.650,251.559 221.899,251.881 221.531 C 252.204 221.163,252.565 220.134,252.685 219.244 C 252.833 218.141,253.201 217.429,253.841 217.010 C 254.594 216.516,254.732 216.162,254.542 215.211 C 254.140 213.202,254.727 210.512,255.618 210.279 C 256.817 209.966,256.841 190.040,255.643 189.727 C 254.794 189.505,254.400 188.085,254.400 185.246 C 254.400 183.873,254.207 183.272,253.657 182.928 C 253.208 182.648,252.826 181.807,252.691 180.801 C 252.568 179.886,252.212 178.837,251.900 178.469 C 251.587 178.101,251.085 177.170,250.783 176.400 C 250.481 175.630,250.001 174.762,249.717 174.471 C 249.433 174.181,249.200 173.631,249.200 173.249 C 249.200 172.868,248.750 171.945,248.200 171.200 C 247.650 170.455,247.200 169.542,247.200 169.171 C 247.200 168.801,246.942 168.283,246.626 168.021 C 246.310 167.759,245.936 167.017,245.794 166.372 C 245.652 165.728,245.341 165.200,245.103 165.200 C 244.865 165.200,242.287 162.788,239.374 159.839 C 236.461 156.891,233.700 154.359,233.239 154.212 C 232.777 154.066,232.400 153.688,232.400 153.373 C 232.400 153.009,231.982 152.800,231.254 152.800 C 230.624 152.800,229.664 152.451,229.122 152.025 C 228.580 151.598,227.611 151.121,226.968 150.964 C 226.326 150.807,225.371 150.345,224.846 149.939 C 224.321 149.533,223.671 149.200,223.400 149.200 C 223.129 149.200,222.458 148.846,221.908 148.413 C 221.358 147.981,220.157 147.507,219.239 147.360 C 218.218 147.197,217.416 146.803,217.171 146.347 C 216.854 145.753,216.304 145.599,214.486 145.595 C 211.558 145.588,210.519 145.298,210.290 144.424 C 210.010 143.351,190.134 143.347,189.794 144.420 M345.600 154.840 C 345.600 155.707,344.458 156.400,343.026 156.400 C 342.385 156.400,342.000 156.623,342.000 156.994 C 342.000 157.363,341.328 157.758,340.227 158.035 C 339.252 158.280,338.362 158.723,338.248 159.019 C 338.135 159.314,337.358 159.680,336.521 159.831 C 335.684 159.982,334.678 160.442,334.284 160.853 C 333.891 161.264,333.240 161.600,332.838 161.600 C 332.437 161.600,331.679 161.934,331.154 162.343 C 329.872 163.340,326.607 164.750,324.466 165.230 C 323.507 165.445,322.457 165.886,322.132 166.210 C 321.808 166.535,320.831 166.800,319.962 166.800 C 318.632 166.800,318.318 166.963,317.990 167.827 C 317.691 168.612,317.411 168.794,316.800 168.600 C 315.659 168.238,314.520 168.696,314.281 169.613 C 314.125 170.210,313.731 170.400,312.652 170.400 C 311.658 170.400,311.104 170.632,310.817 171.167 C 310.591 171.590,309.820 172.061,309.103 172.214 C 308.386 172.368,307.478 172.832,307.084 173.247 C 306.691 173.661,306.040 174.000,305.638 174.000 C 305.237 174.000,304.450 174.360,303.891 174.800 C 303.331 175.240,302.614 175.600,302.296 175.600 C 301.979 175.600,300.873 176.050,299.838 176.600 C 298.804 177.150,297.762 177.600,297.523 177.600 C 294.437 177.600,292.879 180.106,293.584 183.938 C 293.853 185.402,294.253 187.860,294.472 189.400 C 294.980 192.966,294.658 212.609,294.068 214.080 C 293.830 214.674,293.425 216.739,293.168 218.669 C 292.911 220.600,292.465 222.544,292.176 222.990 C 291.887 223.435,291.539 224.789,291.403 225.998 C 291.251 227.351,290.856 228.514,290.378 229.024 C 289.950 229.479,289.600 230.401,289.600 231.072 C 289.600 231.743,289.246 232.742,288.813 233.292 C 288.381 233.842,287.908 235.037,287.762 235.946 C 287.614 236.874,287.276 237.600,286.992 237.600 C 286.425 237.600,286.000 238.473,286.000 239.635 C 286.000 240.059,285.550 240.797,285.000 241.275 C 284.309 241.876,284.000 242.554,284.000 243.472 C 284.000 244.340,283.807 244.800,283.443 244.800 C 282.834 244.800,282.400 245.639,282.400 246.815 C 282.400 247.547,281.204 249.598,279.608 251.600 C 279.169 252.150,278.808 252.819,278.805 253.086 C 278.802 253.353,278.440 253.765,278.000 254.000 C 277.560 254.235,277.200 254.620,277.200 254.854 C 277.200 255.088,276.345 256.154,275.300 257.224 C 272.445 260.146,271.600 261.251,271.600 262.063 C 271.600 262.469,271.330 262.800,271.000 262.800 C 270.670 262.800,270.400 262.974,270.400 263.186 C 270.400 263.399,269.905 264.090,269.300 264.722 C 268.695 265.354,267.709 266.395,267.109 267.035 C 266.082 268.131,265.581 268.575,262.600 271.028 C 261.940 271.571,261.129 272.267,260.797 272.576 C 260.465 272.884,259.700 273.260,259.097 273.411 C 258.494 273.563,258.000 273.812,258.000 273.965 C 258.000 274.437,255.318 277.200,254.860 277.200 C 254.623 277.200,254.235 277.560,254.000 278.000 C 253.765 278.440,253.382 278.800,253.149 278.800 C 252.917 278.800,252.248 279.170,251.663 279.621 C 249.551 281.253,247.550 282.400,246.815 282.400 C 245.639 282.400,244.800 282.834,244.800 283.443 C 244.800 283.807,244.340 284.000,243.472 284.000 C 242.554 284.000,241.876 284.309,241.275 285.000 C 240.797 285.550,240.059 286.000,239.635 286.000 C 238.456 286.000,237.600 286.428,237.600 287.018 C 237.600 287.342,236.903 287.656,235.824 287.817 C 234.847 287.964,233.740 288.425,233.362 288.842 C 232.935 289.313,232.142 289.600,231.264 289.600 C 230.395 289.600,229.519 289.913,228.988 290.412 C 228.449 290.918,227.311 291.318,225.962 291.474 C 224.773 291.613,223.440 291.958,223.000 292.243 C 222.560 292.527,220.490 292.968,218.400 293.222 C 216.310 293.475,214.114 293.934,213.520 294.242 C 211.942 295.057,188.515 295.020,186.207 294.197 C 185.330 293.885,183.350 293.515,181.807 293.375 C 180.263 293.235,178.280 292.794,177.400 292.394 C 176.520 291.995,174.869 291.548,173.732 291.401 C 172.469 291.238,171.394 290.835,170.970 290.367 C 170.561 289.914,169.750 289.600,168.992 289.600 C 168.286 289.600,167.269 289.255,166.733 288.833 C 166.196 288.411,165.047 287.934,164.179 287.772 C 163.310 287.610,162.365 287.146,162.077 286.739 C 161.790 286.333,161.220 286.000,160.810 286.000 C 159.650 286.000,158.800 285.567,158.800 284.975 C 158.800 284.667,158.157 284.320,157.300 284.165 C 156.475 284.016,155.478 283.558,155.084 283.147 C 154.691 282.736,153.864 282.400,153.246 282.400 C 152.629 282.400,151.798 282.040,151.400 281.600 C 151.002 281.160,150.448 280.800,150.169 280.800 C 149.890 280.800,149.127 280.350,148.473 279.800 C 147.819 279.250,147.092 278.800,146.856 278.800 C 146.621 278.800,146.242 278.452,146.014 278.027 C 145.787 277.602,145.286 277.148,144.900 277.019 C 144.515 276.889,143.750 276.164,143.200 275.407 C 142.106 273.902,138.868 271.600,137.844 271.600 C 137.490 271.600,137.200 271.330,137.200 271.000 C 137.200 270.670,137.029 270.400,136.821 270.400 C 136.252 270.400,131.600 265.839,131.600 265.282 C 131.600 265.017,131.324 264.800,130.987 264.800 C 130.651 264.800,130.259 264.485,130.117 264.100 C 129.976 263.715,129.486 263.005,129.030 262.522 C 127.212 260.600,126.905 260.158,126.650 259.100 C 126.504 258.495,126.207 258.000,125.990 258.000 C 125.772 258.000,125.203 257.550,124.725 257.000 C 123.674 255.791,123.043 255.756,121.096 256.800 C 119.502 257.654,117.407 257.859,117.000 257.200 C 116.445 256.303,115.600 256.817,115.600 258.053 C 115.600 259.283,115.572 259.302,114.000 259.091 C 112.675 258.913,112.400 258.993,112.400 259.558 C 112.400 260.558,111.592 261.200,110.334 261.200 C 109.664 261.200,109.071 261.494,108.828 261.947 C 108.608 262.358,107.888 262.802,107.227 262.935 C 106.566 263.067,105.659 263.541,105.213 263.988 C 104.766 264.434,104.064 264.800,103.654 264.800 C 103.244 264.800,102.469 265.145,101.933 265.567 C 101.396 265.989,100.298 266.458,99.493 266.609 C 98.688 266.760,97.824 267.130,97.574 267.431 C 97.117 267.982,94.630 268.644,93.700 268.463 C 93.425 268.409,93.200 268.629,93.200 268.951 C 93.200 269.636,91.182 270.175,90.009 269.803 C 89.387 269.606,89.110 269.783,88.810 270.573 C 88.482 271.437,88.168 271.600,86.837 271.600 C 85.606 271.600,85.198 271.778,85.000 272.400 C 84.824 272.953,84.258 273.277,83.159 273.453 C 82.257 273.597,81.409 274.009,81.196 274.407 C 80.990 274.792,80.177 275.228,79.390 275.376 C 78.602 275.523,77.858 275.904,77.736 276.222 C 77.614 276.540,77.311 276.800,77.063 276.800 C 76.597 276.800,73.624 278.132,70.300 279.829 C 69.255 280.363,68.172 280.800,67.894 280.800 C 67.616 280.800,66.716 281.160,65.896 281.600 C 65.075 282.040,63.682 282.400,62.801 282.400 C 61.662 282.400,61.200 282.569,61.200 282.986 C 61.200 283.873,59.881 284.395,58.290 284.137 C 57.019 283.931,56.854 284.007,56.734 284.853 C 56.619 285.668,56.390 285.794,55.094 285.754 C 53.827 285.715,53.551 285.857,53.352 286.650 C 53.106 287.629,50.501 288.678,49.382 288.248 C 48.938 288.078,48.860 294.621,48.924 326.922 L 49.000 365.800 49.867 365.680 C 50.480 365.596,50.817 365.830,51.020 366.480 C 51.445 367.847,53.687 369.868,55.132 370.185 C 55.829 370.338,56.400 370.621,56.400 370.813 C 56.400 371.005,57.030 371.461,57.800 371.827 C 58.570 372.192,59.200 372.730,59.200 373.021 C 59.200 373.345,59.783 373.600,60.700 373.676 C 61.929 373.778,62.224 373.971,62.334 374.747 C 62.451 375.576,62.631 375.667,63.777 375.481 C 64.676 375.335,65.448 375.508,66.243 376.032 C 66.879 376.451,67.778 376.796,68.240 376.797 C 68.703 376.799,69.927 377.250,70.962 377.800 C 71.996 378.350,73.165 378.800,73.559 378.800 C 73.953 378.800,74.599 379.157,74.994 379.594 C 75.430 380.075,76.484 380.490,77.671 380.647 C 78.988 380.822,79.760 381.151,80.029 381.653 C 80.248 382.064,80.849 382.400,81.364 382.400 C 83.290 382.400,84.781 382.910,85.015 383.648 C 85.198 384.225,85.644 384.401,86.927 384.406 C 89.074 384.414,89.766 384.848,89.411 385.966 C 89.162 386.749,89.242 386.805,90.249 386.552 C 93.264 385.795,95.201 386.153,95.301 387.486 C 95.348 388.100,95.614 388.238,96.580 388.146 C 99.723 387.847,102.104 387.993,103.229 388.555 C 103.904 388.891,105.568 389.277,106.928 389.411 C 110.532 389.767,111.228 389.896,113.000 390.540 C 113.880 390.859,115.860 391.250,117.400 391.407 C 118.940 391.565,120.507 391.964,120.883 392.294 C 121.340 392.695,122.982 392.996,125.832 393.202 C 128.724 393.412,130.206 393.686,130.433 394.055 C 130.673 394.445,132.113 394.657,135.495 394.800 C 139.614 394.974,140.368 395.116,141.364 395.900 C 142.439 396.745,142.886 396.800,148.754 396.805 C 155.455 396.811,156.800 396.984,156.800 397.839 C 156.800 398.731,158.611 398.930,164.108 398.639 C 171.270 398.261,181.200 398.738,181.200 399.459 C 181.200 400.393,218.333 400.245,219.018 399.308 C 219.477 398.680,220.610 398.616,231.394 398.608 C 242.722 398.600,243.291 398.564,243.838 397.815 C 244.359 397.103,245.017 397.015,250.906 396.874 C 256.834 396.731,257.480 396.644,258.316 395.874 C 259.111 395.142,259.881 395.003,264.156 394.816 C 267.554 394.667,269.292 394.424,269.763 394.032 C 270.175 393.690,271.916 393.353,274.153 393.184 C 276.192 393.030,278.477 392.621,279.230 392.276 C 279.984 391.931,281.860 391.525,283.400 391.374 C 284.940 391.223,286.738 390.825,287.395 390.490 C 288.052 390.155,290.064 389.732,291.865 389.549 C 293.667 389.367,295.906 388.911,296.842 388.536 C 298.404 387.912,300.345 387.776,303.357 388.082 C 304.226 388.171,304.541 388.017,304.627 387.463 C 304.804 386.310,305.093 386.200,307.934 386.200 C 310.037 386.200,310.600 386.073,310.600 385.600 C 310.600 384.700,311.215 384.413,313.154 384.406 C 314.507 384.401,315.120 384.171,315.835 383.400 C 316.527 382.653,317.169 382.400,318.367 382.400 C 319.529 382.400,320.083 382.192,320.375 381.647 C 320.633 381.165,321.418 380.798,322.556 380.627 C 323.534 380.481,324.550 380.101,324.814 379.783 C 325.078 379.466,326.037 379.006,326.947 378.761 C 327.856 378.517,328.694 378.166,328.810 377.981 C 328.925 377.796,329.915 377.419,331.010 377.143 C 332.104 376.867,333.316 376.377,333.703 376.056 C 334.090 375.734,335.018 375.494,335.766 375.522 C 336.803 375.561,337.279 375.339,337.772 374.586 C 338.164 373.988,338.799 373.600,339.387 373.600 C 339.919 373.600,340.601 373.248,340.902 372.819 C 341.203 372.389,341.933 371.854,342.524 371.629 C 343.116 371.404,343.600 371.050,343.600 370.842 C 343.600 370.634,344.171 370.338,344.868 370.185 C 346.145 369.905,348.307 368.079,349.108 366.603 C 349.346 366.165,349.869 365.805,350.270 365.803 C 350.975 365.800,351.004 362.117,351.101 260.400 L 351.201 155.000 350.101 154.939 C 349.495 154.906,348.235 154.705,347.300 154.493 C 345.779 154.148,345.600 154.184,345.600 154.840 " stroke="none" fill="#cc0404" fill-rule="evenodd"></path></g></svg>