<svg id="svg" version="1.1" xmlns="http://www.w3.org/2000/svg" xmlns:xlink="http://www.w3.org/1999/xlink" width="400" height="460.7142857142857" viewBox="0, 0, 400,460.7142857142857"><g id="svgg"><path id="path0" d="M193.000 1.876 C 189.459 2.335,184.834 3.343,183.415 3.965 C 182.527 4.354,180.396 5.173,178.681 5.784 C 176.966 6.395,175.346 7.112,175.081 7.376 C 174.816 7.641,173.700 8.310,172.600 8.863 C 169.984 10.177,168.968 10.771,167.059 12.100 C 166.191 12.705,165.313 13.200,165.110 13.200 C 164.907 13.200,163.494 14.006,161.970 14.992 C 160.447 15.977,158.436 17.168,157.500 17.638 C 156.565 18.108,155.521 18.737,155.180 19.036 C 154.839 19.335,153.309 20.240,151.780 21.047 C 150.251 21.855,148.491 22.940,147.869 23.458 C 147.247 23.976,146.571 24.400,146.365 24.400 C 146.160 24.400,144.418 25.368,142.496 26.551 C 140.573 27.734,138.235 29.088,137.300 29.559 C 136.365 30.031,135.600 30.575,135.600 30.769 C 135.600 30.963,135.105 31.315,134.500 31.551 C 133.368 31.993,129.620 34.104,127.946 35.244 C 127.426 35.598,125.771 36.588,124.268 37.444 C 122.765 38.300,120.342 39.681,118.883 40.513 C 117.425 41.345,116.134 42.164,116.016 42.332 C 115.897 42.501,114.576 43.260,113.081 44.019 C 111.585 44.779,110.055 45.677,109.681 46.014 C 109.306 46.352,107.560 47.414,105.800 48.373 C 104.040 49.332,102.510 50.247,102.400 50.406 C 102.290 50.566,101.096 51.252,99.746 51.931 C 98.396 52.610,97.039 53.398,96.731 53.683 C 96.068 54.293,94.892 54.985,92.315 56.280 C 91.278 56.801,90.190 57.467,89.897 57.761 C 89.603 58.054,88.057 58.970,86.461 59.796 C 84.865 60.622,83.332 61.525,83.055 61.802 C 82.777 62.080,81.751 62.712,80.775 63.206 C 79.799 63.701,78.100 64.690,77.000 65.404 C 75.900 66.118,73.920 67.292,72.600 68.011 C 71.280 68.731,70.110 69.441,70.000 69.589 C 69.890 69.736,68.360 70.642,66.600 71.600 C 64.840 72.558,63.310 73.456,63.200 73.595 C 63.090 73.734,61.740 74.537,60.200 75.379 C 58.660 76.222,57.130 77.135,56.800 77.407 C 56.470 77.679,54.940 78.575,53.400 79.397 C 51.860 80.219,50.510 81.026,50.400 81.189 C 50.290 81.353,48.940 82.160,47.400 82.984 C 45.860 83.807,44.330 84.703,44.000 84.976 C 43.670 85.248,42.140 86.160,40.600 87.001 C 39.060 87.843,37.710 88.661,37.600 88.820 C 37.490 88.978,36.140 89.781,34.600 90.603 C 33.060 91.425,31.530 92.318,31.200 92.588 C 30.870 92.858,29.205 93.862,27.500 94.819 C 25.795 95.776,24.400 96.699,24.400 96.869 C 24.400 97.040,23.839 97.470,23.153 97.824 C 19.633 99.645,11.358 108.402,8.908 112.900 C 8.339 113.945,7.748 114.800,7.596 114.800 C 7.443 114.800,6.726 116.105,6.003 117.700 C 5.279 119.295,4.255 121.533,3.727 122.673 C 2.565 125.184,1.019 131.134,0.431 135.357 C -0.324 140.788,-0.159 321.764,0.606 326.248 C 1.763 333.031,2.461 335.304,5.124 340.956 C 6.046 342.912,6.800 344.645,6.800 344.807 C 6.800 344.969,7.061 345.319,7.380 345.584 C 7.699 345.848,8.486 346.995,9.128 348.133 C 11.129 351.676,19.388 360.446,22.684 362.527 C 23.591 363.099,24.450 363.757,24.594 363.990 C 24.737 364.222,25.607 364.794,26.527 365.261 C 27.447 365.729,29.370 366.863,30.800 367.782 C 32.230 368.702,34.210 369.866,35.200 370.371 C 36.190 370.875,37.090 371.422,37.200 371.586 C 37.310 371.750,38.651 372.545,40.180 373.353 C 41.709 374.160,43.239 375.057,43.580 375.346 C 43.921 375.635,45.460 376.555,47.000 377.391 C 48.540 378.227,50.070 379.135,50.400 379.407 C 50.730 379.679,52.260 380.575,53.800 381.397 C 55.340 382.219,56.690 383.022,56.800 383.180 C 56.910 383.339,58.260 384.157,59.800 384.999 C 61.340 385.840,62.870 386.752,63.200 387.024 C 63.530 387.297,65.060 388.195,66.600 389.020 C 68.140 389.845,69.940 390.914,70.600 391.395 C 71.260 391.876,72.790 392.772,74.000 393.386 C 75.210 394.001,76.290 394.634,76.400 394.795 C 76.510 394.955,77.860 395.763,79.400 396.589 C 80.940 397.416,82.290 398.219,82.400 398.375 C 82.510 398.530,84.040 399.442,85.800 400.400 C 87.560 401.358,89.090 402.270,89.200 402.425 C 89.310 402.580,90.480 403.286,91.800 403.993 C 93.120 404.700,95.100 405.867,96.200 406.586 C 97.300 407.306,99.010 408.303,100.000 408.801 C 100.990 409.300,101.890 409.837,102.000 409.996 C 102.110 410.154,103.640 411.067,105.400 412.025 C 107.160 412.983,108.832 413.993,109.115 414.270 C 109.398 414.547,110.478 415.199,111.515 415.720 C 114.007 416.973,115.355 417.743,115.600 418.055 C 115.710 418.195,117.060 418.995,118.600 419.833 C 120.140 420.670,121.490 421.474,121.600 421.619 C 121.710 421.765,123.240 422.668,125.000 423.627 C 126.760 424.586,128.506 425.648,128.881 425.986 C 129.255 426.323,130.785 427.224,132.281 427.986 C 133.776 428.749,135.245 429.611,135.544 429.902 C 135.844 430.193,136.955 430.870,138.013 431.407 C 139.072 431.943,140.627 432.853,141.469 433.429 C 142.311 434.005,144.080 435.022,145.400 435.690 C 146.720 436.357,147.913 437.081,148.052 437.298 C 148.330 437.732,151.961 439.754,153.700 440.443 C 154.305 440.682,154.800 441.037,154.800 441.231 C 154.800 441.425,155.565 441.969,156.500 442.441 C 157.435 442.912,159.773 444.266,161.696 445.449 C 163.618 446.632,165.360 447.600,165.565 447.600 C 165.771 447.600,166.447 448.025,167.069 448.543 C 167.691 449.062,169.550 450.180,171.200 451.026 C 172.850 451.873,174.418 452.779,174.685 453.040 C 174.953 453.300,176.753 454.074,178.685 454.758 C 180.618 455.442,182.531 456.192,182.935 456.426 C 186.061 458.232,200.490 459.393,207.800 458.427 C 211.618 457.922,216.466 456.838,216.800 456.415 C 216.910 456.275,217.763 455.938,218.695 455.666 C 221.412 454.872,231.795 449.670,232.400 448.799 C 232.510 448.641,233.860 447.831,235.400 446.999 C 236.940 446.167,238.470 445.260,238.800 444.984 C 239.130 444.707,240.660 443.807,242.200 442.984 C 243.740 442.160,245.090 441.364,245.200 441.215 C 245.310 441.065,246.840 440.154,248.600 439.190 C 250.360 438.227,252.149 437.115,252.575 436.719 C 253.002 436.324,253.534 436.000,253.757 436.000 C 253.981 436.000,255.726 435.010,257.634 433.800 C 259.543 432.590,261.235 431.600,261.394 431.600 C 261.554 431.600,262.452 431.082,263.390 430.449 C 264.328 429.816,266.334 428.617,267.848 427.784 C 269.361 426.952,270.870 426.044,271.200 425.767 C 271.530 425.490,273.060 424.589,274.600 423.764 C 276.140 422.939,277.940 421.873,278.600 421.396 C 279.260 420.919,280.610 420.126,281.600 419.635 C 282.590 419.143,283.580 418.529,283.800 418.271 C 284.020 418.012,285.550 417.098,287.200 416.240 C 288.850 415.382,290.479 414.442,290.820 414.151 C 291.161 413.859,292.691 412.965,294.220 412.162 C 295.749 411.360,297.360 410.385,297.800 409.996 C 298.240 409.607,299.525 408.825,300.656 408.260 C 301.786 407.694,302.957 406.999,303.258 406.716 C 303.559 406.432,305.154 405.501,306.802 404.646 C 308.451 403.791,309.995 402.853,310.233 402.561 C 310.471 402.270,311.101 401.847,311.633 401.621 C 312.537 401.237,315.335 399.650,318.369 397.800 C 321.985 395.594,324.455 394.140,326.987 392.724 C 328.520 391.866,329.870 391.034,329.987 390.874 C 330.104 390.715,330.650 390.366,331.200 390.100 C 332.821 389.316,335.587 387.721,336.527 387.028 C 337.712 386.154,342.811 383.166,346.053 381.445 C 347.511 380.671,348.958 379.804,349.268 379.519 C 349.932 378.907,351.106 378.216,353.685 376.920 C 354.722 376.399,355.813 375.730,356.110 375.433 C 356.407 375.136,357.449 374.488,358.425 373.994 C 359.401 373.499,361.100 372.516,362.200 371.808 C 363.300 371.100,365.370 369.852,366.800 369.035 C 372.270 365.909,375.319 364.057,375.555 363.716 C 375.690 363.521,376.430 362.938,377.200 362.421 C 379.910 360.601,387.600 352.963,387.600 352.091 C 387.600 351.807,387.868 351.472,388.196 351.346 C 388.524 351.220,389.462 350.011,390.281 348.659 C 391.100 347.306,392.156 345.628,392.628 344.928 C 393.100 344.229,394.001 342.429,394.630 340.928 C 395.259 339.428,395.903 338.106,396.062 337.992 C 396.505 337.672,398.353 331.024,399.117 327.000 C 400.215 321.214,400.163 139.457,399.062 133.218 C 398.109 127.825,397.124 124.675,394.955 120.089 C 393.990 118.048,393.200 116.293,393.200 116.190 C 393.200 116.086,392.570 115.125,391.800 114.053 C 391.030 112.981,390.400 111.920,390.400 111.695 C 390.400 111.469,389.904 110.753,389.297 110.104 C 388.691 109.455,387.698 108.207,387.090 107.330 C 385.151 104.531,374.672 95.200,373.468 95.200 C 373.344 95.200,371.567 94.146,369.521 92.857 C 367.474 91.569,365.427 90.397,364.971 90.253 C 364.514 90.109,363.780 89.654,363.339 89.243 C 362.897 88.832,361.300 87.840,359.788 87.037 C 358.276 86.235,356.761 85.341,356.420 85.049 C 356.079 84.758,354.450 83.818,352.800 82.960 C 351.150 82.102,349.620 81.194,349.400 80.941 C 349.180 80.689,347.740 79.813,346.200 78.995 C 344.660 78.178,343.310 77.394,343.200 77.254 C 342.982 76.978,342.008 76.407,339.234 74.932 C 338.246 74.407,337.159 73.741,336.819 73.453 C 336.478 73.165,334.940 72.245,333.400 71.409 C 331.860 70.573,330.330 69.665,330.000 69.393 C 329.670 69.121,328.140 68.225,326.600 67.403 C 325.060 66.581,323.710 65.774,323.600 65.611 C 323.490 65.447,322.140 64.640,320.600 63.816 C 319.060 62.993,317.530 62.090,317.200 61.810 C 316.870 61.529,315.349 60.642,313.820 59.839 C 312.291 59.036,310.761 58.132,310.420 57.830 C 310.079 57.528,308.540 56.610,307.000 55.791 C 305.460 54.972,303.921 54.059,303.580 53.762 C 302.995 53.251,302.082 52.714,294.524 48.429 C 292.806 47.455,291.310 46.532,291.200 46.379 C 291.090 46.226,289.560 45.327,287.800 44.381 C 286.040 43.435,284.510 42.533,284.400 42.377 C 284.290 42.221,283.120 41.514,281.800 40.807 C 280.480 40.100,278.500 38.933,277.400 38.214 C 276.300 37.494,274.601 36.501,273.625 36.006 C 272.649 35.512,271.607 34.864,271.310 34.567 C 271.013 34.270,269.922 33.601,268.885 33.080 C 266.315 31.789,265.040 31.054,264.787 30.717 C 264.670 30.562,263.320 29.731,261.787 28.870 C 256.046 25.645,252.585 23.623,252.124 23.225 C 251.660 22.824,250.264 22.016,247.002 20.260 C 246.123 19.787,245.057 19.087,244.632 18.705 C 244.207 18.322,243.486 17.892,243.029 17.749 C 242.573 17.606,241.030 16.729,239.600 15.799 C 238.170 14.870,236.068 13.638,234.928 13.062 C 233.789 12.486,232.749 11.842,232.618 11.630 C 232.488 11.418,230.916 10.498,229.125 9.586 C 227.335 8.674,225.644 7.701,225.367 7.424 C 225.091 7.148,223.185 6.325,221.132 5.596 C 219.079 4.867,217.220 4.151,217.000 4.005 C 214.469 2.326,199.656 1.012,193.000 1.876 M203.800 12.817 C 210.787 13.477,220.491 16.696,223.600 19.385 C 223.930 19.671,225.460 20.586,227.000 21.419 C 228.540 22.251,229.890 23.058,230.000 23.210 C 230.110 23.363,231.640 24.258,233.400 25.200 C 235.160 26.142,236.690 27.038,236.800 27.191 C 236.910 27.344,238.260 28.165,239.800 29.015 C 241.340 29.866,243.302 31.065,244.160 31.681 C 245.018 32.296,245.883 32.800,246.081 32.800 C 246.280 32.800,247.648 33.585,249.121 34.545 C 250.595 35.505,252.790 36.789,254.000 37.398 C 255.210 38.007,256.290 38.632,256.400 38.787 C 256.510 38.942,257.860 39.763,259.400 40.611 C 260.940 41.459,262.290 42.272,262.400 42.417 C 262.510 42.562,263.680 43.269,265.000 43.989 C 266.320 44.708,268.300 45.882,269.400 46.597 C 270.500 47.312,272.300 48.382,273.400 48.976 C 276.577 50.690,281.350 53.516,281.940 54.033 C 282.236 54.293,283.316 54.949,284.340 55.492 C 287.659 57.252,288.596 57.795,288.813 58.083 C 288.930 58.238,290.280 59.069,291.813 59.930 C 297.065 62.880,301.000 65.188,301.873 65.830 C 302.807 66.516,305.559 68.104,307.200 68.904 C 307.750 69.171,308.445 69.625,308.744 69.911 C 309.044 70.197,310.164 70.875,311.235 71.418 C 312.305 71.960,314.432 73.213,315.961 74.202 C 317.489 75.191,318.920 76.000,319.139 76.000 C 319.359 76.000,320.047 76.425,320.669 76.943 C 321.291 77.462,323.150 78.579,324.800 79.424 C 326.450 80.270,327.980 81.171,328.200 81.427 C 328.420 81.682,329.950 82.591,331.600 83.446 C 333.250 84.301,334.780 85.212,335.000 85.471 C 335.220 85.730,336.520 86.504,337.889 87.191 C 339.258 87.878,340.476 88.600,340.597 88.795 C 340.717 88.990,341.307 89.403,341.908 89.713 C 344.800 91.207,347.020 92.472,347.581 92.947 C 347.922 93.235,349.439 94.152,350.952 94.984 C 352.466 95.817,354.472 97.016,355.410 97.649 C 356.348 98.282,357.288 98.800,357.498 98.800 C 357.708 98.800,358.598 99.320,359.476 99.956 C 360.354 100.592,362.316 101.780,363.836 102.595 C 365.356 103.410,366.960 104.399,367.400 104.792 C 367.840 105.185,368.748 105.783,369.418 106.121 C 371.122 106.981,377.796 113.356,379.304 115.566 C 379.994 116.574,380.767 117.580,381.023 117.800 C 381.485 118.197,383.264 121.327,385.018 124.830 C 386.058 126.907,387.789 132.345,387.501 132.632 C 387.397 132.736,386.858 132.232,386.304 131.511 C 385.750 130.790,384.239 129.660,382.948 129.000 C 381.657 128.340,380.507 127.678,380.394 127.528 C 379.496 126.344,369.352 126.359,367.842 127.546 C 367.599 127.737,366.410 128.265,365.200 128.719 C 362.135 129.868,359.600 131.155,359.600 131.561 C 359.600 131.749,359.040 132.135,358.355 132.419 C 357.670 132.702,355.553 133.959,353.649 135.210 C 351.746 136.462,349.818 137.604,349.365 137.748 C 348.912 137.891,348.192 138.335,347.765 138.732 C 347.338 139.130,345.731 140.151,344.194 141.002 C 342.657 141.852,340.774 143.055,340.009 143.674 C 339.244 144.293,338.416 144.800,338.169 144.800 C 337.922 144.800,337.000 145.322,336.120 145.959 C 335.240 146.597,333.189 147.872,331.562 148.794 C 329.935 149.716,328.513 150.616,328.402 150.794 C 328.291 150.972,327.300 151.608,326.200 152.208 C 322.868 154.023,322.644 154.161,321.158 155.300 C 320.370 155.905,319.543 156.400,319.322 156.400 C 319.101 156.400,318.128 156.982,317.160 157.694 C 316.192 158.405,315.040 159.183,314.600 159.422 C 311.441 161.135,309.822 162.120,309.291 162.652 C 308.953 162.990,308.266 163.423,307.766 163.613 C 307.265 163.803,305.358 164.920,303.528 166.094 C 301.697 167.268,299.505 168.582,298.656 169.014 C 297.807 169.446,297.023 170.025,296.913 170.300 C 296.804 170.575,296.536 170.800,296.317 170.800 C 295.917 170.800,291.171 173.584,290.800 174.037 C 290.690 174.171,289.520 174.877,288.200 175.607 C 286.880 176.336,284.810 177.606,283.600 178.429 C 282.390 179.252,280.725 180.245,279.900 180.637 C 279.075 181.028,278.400 181.504,278.400 181.693 C 278.400 181.883,277.905 182.256,277.300 182.521 C 275.947 183.114,272.273 185.265,272.000 185.624 C 271.890 185.768,270.451 186.648,268.802 187.579 C 267.153 188.509,265.713 189.390,265.602 189.535 C 265.389 189.815,264.534 190.328,261.600 191.938 C 260.610 192.482,259.440 193.228,259.000 193.597 C 258.560 193.967,257.120 194.863,255.800 195.588 C 254.480 196.314,253.310 197.038,253.200 197.197 C 253.090 197.356,251.651 198.248,250.002 199.179 C 248.353 200.109,246.913 201.005,246.802 201.170 C 246.691 201.334,245.340 202.166,243.800 203.017 C 242.260 203.869,240.756 204.804,240.458 205.096 C 240.160 205.388,239.170 206.001,238.258 206.459 C 237.346 206.917,236.060 207.694,235.400 208.186 C 234.740 208.677,232.851 209.843,231.202 210.775 C 229.553 211.708,228.113 212.603,228.002 212.764 C 227.891 212.925,226.409 213.820,224.710 214.751 C 223.010 215.683,221.512 216.619,221.381 216.830 C 221.250 217.042,220.301 217.653,219.272 218.189 C 218.242 218.724,216.950 219.532,216.400 219.984 C 215.850 220.437,214.185 221.711,212.700 222.817 C 209.070 225.519,203.667 230.898,201.868 233.600 C 201.062 234.810,200.193 236.048,199.937 236.352 C 199.298 237.109,196.811 242.859,196.802 243.600 C 196.798 243.930,196.529 244.711,196.203 245.335 C 194.598 248.412,194.600 248.314,194.600 340.800 C 194.600 430.771,194.670 435.600,195.973 435.600 C 196.138 435.600,196.502 436.365,196.781 437.300 C 197.922 441.120,201.046 445.086,204.173 446.687 L 205.746 447.492 202.649 447.783 C 197.474 448.267,184.690 446.250,183.600 444.777 C 183.490 444.628,181.968 443.847,180.219 443.042 C 178.469 442.236,176.759 441.334,176.419 441.037 C 176.078 440.740,174.540 439.825,173.000 439.003 C 171.460 438.181,170.110 437.375,170.000 437.212 C 169.890 437.049,168.360 436.135,166.600 435.181 C 164.840 434.227,163.310 433.335,163.200 433.199 C 163.090 433.064,161.740 432.256,160.200 431.404 C 158.660 430.551,156.698 429.347,155.840 428.727 C 154.982 428.107,154.117 427.600,153.919 427.600 C 153.720 427.600,152.352 426.815,150.879 425.855 C 149.405 424.895,147.210 423.611,146.000 423.002 C 144.790 422.393,143.710 421.768,143.600 421.613 C 143.490 421.458,142.140 420.643,140.600 419.801 C 139.060 418.960,137.530 418.048,137.200 417.775 C 136.870 417.503,135.700 416.790,134.600 416.191 C 133.500 415.592,131.700 414.517,130.600 413.803 C 129.500 413.088,127.700 412.018,126.600 411.424 C 123.414 409.705,118.687 406.917,117.618 406.126 C 117.078 405.727,116.088 405.122,115.418 404.783 C 113.268 403.693,111.406 402.608,111.187 402.317 C 111.070 402.162,109.720 401.331,108.187 400.470 C 101.344 396.626,98.933 395.213,98.000 394.501 C 97.450 394.082,95.833 393.122,94.408 392.369 C 92.982 391.616,91.567 390.768,91.264 390.484 C 90.960 390.201,89.786 389.501,88.656 388.930 C 87.525 388.360,85.880 387.401,85.000 386.800 C 84.120 386.199,82.475 385.240,81.344 384.670 C 80.214 384.099,79.044 383.392,78.744 383.100 C 78.205 382.573,75.803 381.226,73.300 380.046 C 72.585 379.709,72.000 379.294,72.000 379.123 C 72.000 378.953,71.064 378.339,69.921 377.760 C 68.778 377.181,66.481 375.853,64.817 374.811 C 63.153 373.768,61.421 372.797,60.967 372.653 C 60.512 372.509,59.785 372.078,59.350 371.695 C 58.502 370.950,57.662 370.436,54.834 368.932 C 53.846 368.407,52.759 367.739,52.419 367.448 C 52.078 367.158,50.450 366.218,48.800 365.360 C 47.150 364.502,45.620 363.594,45.400 363.341 C 45.180 363.089,43.740 362.213,42.200 361.395 C 40.660 360.578,39.310 359.770,39.200 359.602 C 39.090 359.433,37.716 358.642,36.146 357.844 C 34.576 357.045,33.058 356.111,32.773 355.767 C 32.487 355.423,31.571 354.793,30.737 354.368 C 27.896 352.919,17.600 342.148,17.600 340.625 C 17.600 340.468,16.899 339.138,16.042 337.670 C 14.551 335.114,12.818 330.574,12.199 327.600 C 12.039 326.830,11.766 326.020,11.593 325.800 C 10.512 324.424,10.402 315.625,10.402 230.200 C 10.402 144.775,10.512 135.976,11.593 134.600 C 11.766 134.380,12.039 133.570,12.199 132.800 C 12.818 129.826,14.551 125.286,16.042 122.730 C 16.899 121.262,17.600 119.932,17.600 119.775 C 17.600 118.252,27.896 107.481,30.737 106.032 C 31.571 105.607,32.487 104.977,32.773 104.633 C 33.058 104.289,34.567 103.358,36.125 102.564 C 37.684 101.769,39.508 100.716,40.179 100.224 C 40.851 99.731,42.210 98.926,43.200 98.435 C 44.190 97.943,45.180 97.329,45.400 97.071 C 45.620 96.812,47.150 95.898,48.800 95.040 C 50.450 94.182,52.079 93.242,52.420 92.951 C 52.761 92.659,54.291 91.760,55.820 90.953 C 57.349 90.145,59.109 89.060,59.731 88.542 C 60.353 88.024,61.030 87.600,61.235 87.600 C 61.441 87.600,63.011 86.721,64.725 85.647 C 66.439 84.573,68.778 83.219,69.921 82.640 C 71.064 82.061,72.000 81.427,72.000 81.232 C 72.000 81.038,72.495 80.685,73.100 80.449 C 74.102 80.058,76.524 78.701,79.969 76.600 C 83.585 74.394,86.055 72.940,88.587 71.524 C 90.120 70.666,91.470 69.838,91.587 69.683 C 91.704 69.527,93.013 68.770,94.496 68.000 C 95.979 67.230,97.599 66.279,98.096 65.886 C 98.959 65.203,102.122 63.337,108.187 59.930 C 109.720 59.069,111.070 58.238,111.187 58.083 C 111.404 57.795,112.341 57.252,115.660 55.492 C 116.684 54.949,117.764 54.293,118.060 54.033 C 118.650 53.516,123.423 50.690,126.600 48.976 C 127.700 48.382,129.500 47.312,130.600 46.597 C 131.700 45.882,133.680 44.708,135.000 43.989 C 136.320 43.269,137.490 42.562,137.600 42.417 C 137.710 42.272,139.060 41.459,140.600 40.611 C 142.140 39.763,143.490 38.942,143.600 38.787 C 143.710 38.632,144.790 38.007,146.000 37.398 C 147.210 36.789,149.405 35.505,150.879 34.545 C 152.352 33.585,153.720 32.800,153.919 32.800 C 154.117 32.800,154.982 32.296,155.840 31.681 C 156.698 31.065,158.660 29.866,160.200 29.015 C 161.740 28.165,163.090 27.353,163.200 27.211 C 163.310 27.070,164.840 26.173,166.600 25.219 C 168.360 24.265,169.890 23.351,170.000 23.188 C 170.110 23.025,171.460 22.219,173.000 21.397 C 174.540 20.575,176.070 19.669,176.400 19.384 C 179.320 16.863,189.309 13.442,195.490 12.846 C 197.421 12.660,199.090 12.484,199.200 12.454 C 199.310 12.425,201.380 12.588,203.800 12.817 M259.357 254.233 C 259.491 254.581,259.600 257.821,259.600 261.433 C 259.600 265.045,259.699 268.000,259.819 268.000 C 259.940 268.000,260.786 267.639,261.699 267.198 C 265.146 265.532,272.490 265.119,273.883 266.512 C 274.466 267.095,274.011 271.162,273.178 272.808 C 273.009 273.142,272.575 274.852,272.213 276.608 C 271.193 281.561,271.178 281.573,266.287 281.551 C 261.884 281.530,259.200 281.869,259.200 282.445 C 259.200 282.640,258.970 282.800,258.689 282.800 C 255.002 282.800,246.400 290.725,246.400 294.121 C 246.400 294.458,246.175 294.808,245.900 294.900 C 245.546 295.018,245.400 296.189,245.400 298.899 L 245.400 302.732 247.201 304.508 C 249.213 306.492,251.749 307.200,256.843 307.200 C 267.794 307.200,273.983 310.553,276.036 317.600 C 276.325 318.590,276.750 319.528,276.981 319.686 C 277.577 320.091,277.544 332.499,276.945 333.239 C 276.695 333.547,276.358 334.610,276.197 335.600 C 275.339 340.860,271.483 349.272,267.792 353.939 C 265.547 356.777,260.879 361.600,260.377 361.600 C 260.156 361.600,260.000 364.412,260.000 368.420 C 260.000 376.047,259.731 377.103,257.493 378.249 C 256.782 378.613,256.110 379.044,256.000 379.205 C 255.414 380.064,250.085 382.325,249.657 381.897 C 249.353 381.593,249.200 379.310,249.200 375.073 L 249.200 368.707 248.300 368.921 C 247.805 369.039,246.320 369.458,245.000 369.853 C 239.814 371.401,232.000 370.697,232.000 368.681 C 232.000 366.544,234.414 356.704,235.214 355.581 L 236.062 354.390 240.331 354.646 C 245.752 354.973,253.200 353.412,253.200 351.951 C 253.200 351.758,253.438 351.600,253.730 351.600 C 254.757 351.600,258.081 348.871,259.637 346.748 C 260.504 345.567,261.486 344.241,261.820 343.802 C 263.874 341.102,264.659 332.569,263.127 329.611 C 261.585 326.635,259.724 325.954,251.884 325.497 C 248.318 325.289,245.310 324.979,245.200 324.808 C 245.090 324.638,244.231 324.369,243.290 324.212 C 241.541 323.920,236.800 321.762,236.800 321.258 C 236.800 321.104,236.248 320.374,235.573 319.634 C 233.031 316.852,231.939 311.620,232.464 304.742 C 232.725 301.316,234.225 294.385,234.789 294.000 C 234.949 293.890,235.478 292.720,235.964 291.400 C 237.331 287.685,241.406 281.794,245.300 277.903 L 248.800 274.406 248.800 268.149 C 248.800 259.832,248.946 259.406,252.538 257.246 C 254.112 256.300,256.012 255.092,256.759 254.563 C 258.344 253.440,259.020 253.354,259.357 254.233 M335.511 337.904 L 335.623 343.142 334.311 344.121 C 333.590 344.659,331.920 345.689,330.600 346.410 C 329.280 347.130,328.103 347.867,327.985 348.047 C 327.866 348.226,326.959 348.804,325.969 349.330 C 323.170 350.819,322.254 351.356,321.522 351.942 C 320.826 352.499,317.196 354.682,312.135 357.589 C 310.559 358.494,309.052 359.496,308.786 359.817 C 308.520 360.138,308.157 360.400,307.980 360.400 C 307.615 360.400,302.708 363.239,302.400 363.628 C 301.943 364.204,297.681 366.348,297.451 366.117 C 297.124 365.791,297.124 356.264,297.450 355.414 C 297.587 355.056,298.557 354.328,299.606 353.797 C 300.654 353.266,301.768 352.575,302.081 352.262 C 302.394 351.949,303.449 351.287,304.425 350.791 C 305.401 350.295,307.405 349.104,308.879 348.144 C 310.352 347.185,311.720 346.400,311.919 346.400 C 312.117 346.400,312.982 345.893,313.840 345.273 C 314.698 344.653,316.660 343.454,318.200 342.608 C 319.740 341.763,321.279 340.835,321.620 340.546 C 321.961 340.257,323.491 339.365,325.020 338.562 C 326.549 337.760,328.160 336.790,328.600 336.407 C 329.040 336.024,330.525 335.121,331.900 334.400 C 333.275 333.679,334.400 332.919,334.400 332.711 C 334.400 332.503,334.625 332.408,334.900 332.499 C 335.258 332.618,335.432 334.151,335.511 337.904 " stroke="none" fill="#040404" fill-rule="evenodd"></path><path id="path1" d="" stroke="none" fill="#080404" fill-rule="evenodd"></path><path id="path2" d="" stroke="none" fill="#080404" fill-rule="evenodd"></path></g></svg>